<?xml version="1.0" encoding="us-ascii" standalone="no"?><svg xmlns="http://www.w3.org/2000/svg" xmlns:xlink="http://www.w3.org/1999/xlink" contentStyleType="text/css" height="1051px" preserveAspectRatio="none" style="width:1811px;height:1051px;background:#FFFFFF;" version="1.1" viewBox="0 0 1811 1051" width="1811px" zoomAndPan="magnify"><defs/><g><!--cluster Cmder--><g id="cluster_Cmder"><path d="M1122.5,6 L1174.5,6 A3.75,3.75 0 0 1 1177,8.5 L1184,28.2969 L1794.5,28.2969 A2.5,2.5 0 0 1 1797,30.7969 L1797,283.5 A2.5,2.5 0 0 1 1794.5,286 L1122.5,286 A2.5,2.5 0 0 1 1120,283.5 L1120,8.5 A2.5,2.5 0 0 1 1122.5,6 " fill="none" style="stroke:#000000;stroke-width:1.5;"/><line style="stroke:#000000;stroke-width:1.5;" x1="1120" x2="1184" y1="28.2969" y2="28.2969"/><text fill="#000000" font-family="sans-serif" font-size="14" font-weight="bold" lengthAdjust="spacing" textLength="51" x="1124" y="20.9951">Cmder</text></g><!--cluster Testing--><g id="cluster_Testing"><path d="M1146.5,49 L1209.5,49 A3.75,3.75 0 0 1 1212,51.5 L1219,71.2969 L1770.5,71.2969 A2.5,2.5 0 0 1 1773,73.7969 L1773,259.5 A2.5,2.5 0 0 1 1770.5,262 L1146.5,262 A2.5,2.5 0 0 1 1144,259.5 L1144,51.5 A2.5,2.5 0 0 1 1146.5,49 " fill="none" style="stroke:#000000;stroke-width:1.5;"/><line style="stroke:#000000;stroke-width:1.5;" x1="1144" x2="1219" y1="71.2969" y2="71.2969"/><text fill="#000000" font-family="sans-serif" font-size="14" font-weight="bold" lengthAdjust="spacing" textLength="62" x="1148" y="63.9951">Testing</text></g><!--class AgentTest--><g id="elem_AgentTest"><rect codeLine="104" fill="#F1F1F1" height="162.0781" id="AgentTest" rx="2.5" ry="2.5" style="stroke:#181818;stroke-width:0.5;" width="341" x="1160.5" y="84"/><ellipse cx="1288.75" cy="100" fill="#ADD1B2" rx="11" ry="11" style="stroke:#181818;stroke-width:1.0;"/><path d="M1291.0938,95.6719 C1290.1563,95.2344 1289.5625,95.0938 1288.6875,95.0938 C1286.0625,95.0938 1284.0625,97.1719 1284.0625,99.8906 L1284.0625,101.0156 C1284.0625,103.5938 1286.1719,105.4844 1289.0625,105.4844 C1290.2813,105.4844 1291.4375,105.1875 1292.1875,104.6406 C1292.7656,104.2344 1293.0938,103.7813 1293.0938,103.3906 C1293.0938,102.9375 1292.7031,102.5469 1292.2344,102.5469 C1292.0156,102.5469 1291.8125,102.625 1291.625,102.8125 C1291.1719,103.2969 1291.1719,103.2969 1290.9844,103.3906 C1290.5625,103.6563 1289.875,103.7813 1289.1094,103.7813 C1287.0625,103.7813 1285.7656,102.6875 1285.7656,100.9844 L1285.7656,99.8906 C1285.7656,98.1094 1287.0156,96.7969 1288.75,96.7969 C1289.3281,96.7969 1289.9375,96.9531 1290.4063,97.2031 C1290.8906,97.4844 1291.0625,97.7031 1291.1563,98.1094 C1291.2188,98.5156 1291.25,98.6406 1291.3906,98.7656 C1291.5313,98.9063 1291.7656,99.0156 1291.9844,99.0156 C1292.25,99.0156 1292.5156,98.875 1292.6875,98.6563 C1292.7969,98.5 1292.8281,98.3125 1292.8281,97.8906 L1292.8281,96.4688 C1292.8281,96.0313 1292.8125,95.9063 1292.7188,95.75 C1292.5625,95.4844 1292.2813,95.3438 1291.9844,95.3438 C1291.6875,95.3438 1291.4844,95.4375 1291.2656,95.75 L1291.0938,95.6719 Z " fill="#000000"/><text fill="#000000" font-family="sans-serif" font-size="14" lengthAdjust="spacing" textLength="76" x="1309.25" y="104.8467">AgentTest</text><line style="stroke:#181818;stroke-width:0.5;" x1="1161.5" x2="1500.5" y1="116" y2="116"/><polygon fill="none" points="1171.5,124.6484,1175.5,128.6484,1171.5,132.6484,1167.5,128.6484" style="stroke:#B38D22;stroke-width:1.0;"/><text fill="#000000" font-family="sans-serif" font-size="14" lengthAdjust="spacing" text-decoration="underline" textLength="277" x="1180.5" y="132.9951">sAsyncAgent : static Agent::SharedPtr</text><polygon fill="none" points="1171.5,140.9453,1175.5,144.9453,1171.5,148.9453,1167.5,144.9453" style="stroke:#B38D22;stroke-width:1.0;"/><text fill="#000000" font-family="sans-serif" font-size="14" lengthAdjust="spacing" text-decoration="underline" textLength="315" x="1180.5" y="149.292">sNoCallbackAgent : static Agent::SharedPtr</text><polygon fill="none" points="1171.5,157.2422,1175.5,161.2422,1171.5,165.2422,1167.5,161.2422" style="stroke:#B38D22;stroke-width:1.0;"/><text fill="#000000" font-family="sans-serif" font-size="14" lengthAdjust="spacing" text-decoration="underline" textLength="269" x="1180.5" y="165.5889">sCallback : static Callback::SharedPtr</text><polygon fill="none" points="1171.5,173.5391,1175.5,177.5391,1171.5,181.5391,1167.5,177.5391" style="stroke:#B38D22;stroke-width:1.0;"/><text fill="#000000" font-family="sans-serif" font-size="14" lengthAdjust="spacing" text-decoration="underline" textLength="159" x="1180.5" y="181.8857">sServer : static Server</text><line style="stroke:#181818;stroke-width:0.5;" x1="1161.5" x2="1500.5" y1="189.1875" y2="189.1875"/><polygon fill="#FFFF44" points="1171.5,197.8359,1175.5,201.8359,1171.5,205.8359,1167.5,201.8359" style="stroke:#B38D22;stroke-width:1.0;"/><text fill="#000000" font-family="sans-serif" font-size="14" lengthAdjust="spacing" textLength="97" x="1180.5" y="206.1826">SetUp() : void</text><polygon fill="#FFFF44" points="1171.5,214.1328,1175.5,218.1328,1171.5,222.1328,1167.5,218.1328" style="stroke:#B38D22;stroke-width:1.0;"/><text fill="#000000" font-family="sans-serif" font-size="14" lengthAdjust="spacing" text-decoration="underline" textLength="166" x="1180.5" y="222.4795">SetUpTestSuite() : void</text><polygon fill="#FFFF44" points="1171.5,230.4297,1175.5,234.4297,1171.5,238.4297,1167.5,234.4297" style="stroke:#B38D22;stroke-width:1.0;"/><text fill="#000000" font-family="sans-serif" font-size="14" lengthAdjust="spacing" text-decoration="underline" textLength="194" x="1180.5" y="238.7764">TearDownTestSuite() : void</text></g><!--class ServerTest--><g id="elem_ServerTest"><rect codeLine="114" fill="#F1F1F1" height="113.1875" id="ServerTest" rx="2.5" ry="2.5" style="stroke:#181818;stroke-width:0.5;" width="220" x="1537" y="108.5"/><ellipse cx="1603.25" cy="124.5" fill="#ADD1B2" rx="11" ry="11" style="stroke:#181818;stroke-width:1.0;"/><path d="M1605.5938,120.1719 C1604.6563,119.7344 1604.0625,119.5938 1603.1875,119.5938 C1600.5625,119.5938 1598.5625,121.6719 1598.5625,124.3906 L1598.5625,125.5156 C1598.5625,128.0938 1600.6719,129.9844 1603.5625,129.9844 C1604.7813,129.9844 1605.9375,129.6875 1606.6875,129.1406 C1607.2656,128.7344 1607.5938,128.2813 1607.5938,127.8906 C1607.5938,127.4375 1607.2031,127.0469 1606.7344,127.0469 C1606.5156,127.0469 1606.3125,127.125 1606.125,127.3125 C1605.6719,127.7969 1605.6719,127.7969 1605.4844,127.8906 C1605.0625,128.1563 1604.375,128.2813 1603.6094,128.2813 C1601.5625,128.2813 1600.2656,127.1875 1600.2656,125.4844 L1600.2656,124.3906 C1600.2656,122.6094 1601.5156,121.2969 1603.25,121.2969 C1603.8281,121.2969 1604.4375,121.4531 1604.9063,121.7031 C1605.3906,121.9844 1605.5625,122.2031 1605.6563,122.6094 C1605.7188,123.0156 1605.75,123.1406 1605.8906,123.2656 C1606.0313,123.4063 1606.2656,123.5156 1606.4844,123.5156 C1606.75,123.5156 1607.0156,123.375 1607.1875,123.1563 C1607.2969,123 1607.3281,122.8125 1607.3281,122.3906 L1607.3281,120.9688 C1607.3281,120.5313 1607.3125,120.4063 1607.2188,120.25 C1607.0625,119.9844 1606.7813,119.8438 1606.4844,119.8438 C1606.1875,119.8438 1605.9844,119.9375 1605.7656,120.25 L1605.5938,120.1719 Z " fill="#000000"/><text fill="#000000" font-family="sans-serif" font-size="14" lengthAdjust="spacing" textLength="79" x="1623.75" y="129.3467">ServerTest</text><line style="stroke:#181818;stroke-width:0.5;" x1="1538" x2="1756" y1="140.5" y2="140.5"/><polygon fill="none" points="1548,149.1484,1552,153.1484,1548,157.1484,1544,153.1484" style="stroke:#B38D22;stroke-width:1.0;"/><text fill="#000000" font-family="sans-serif" font-size="14" lengthAdjust="spacing" text-decoration="underline" textLength="159" x="1557" y="157.4951">sServer : static Server</text><line style="stroke:#181818;stroke-width:0.5;" x1="1538" x2="1756" y1="164.7969" y2="164.7969"/><polygon fill="#FFFF44" points="1548,173.4453,1552,177.4453,1548,181.4453,1544,177.4453" style="stroke:#B38D22;stroke-width:1.0;"/><text fill="#000000" font-family="sans-serif" font-size="14" lengthAdjust="spacing" textLength="97" x="1557" y="181.792">SetUp() : void</text><polygon fill="#FFFF44" points="1548,189.7422,1552,193.7422,1548,197.7422,1544,193.7422" style="stroke:#B38D22;stroke-width:1.0;"/><text fill="#000000" font-family="sans-serif" font-size="14" lengthAdjust="spacing" text-decoration="underline" textLength="166" x="1557" y="198.0889">SetUpTestSuite() : void</text><polygon fill="#FFFF44" points="1548,206.0391,1552,210.0391,1548,214.0391,1544,210.0391" style="stroke:#B38D22;stroke-width:1.0;"/><text fill="#000000" font-family="sans-serif" font-size="14" lengthAdjust="spacing" text-decoration="underline" textLength="194" x="1557" y="214.3857">TearDownTestSuite() : void</text></g><!--class Agent--><g id="elem_Agent"><rect codeLine="3" fill="#F1F1F1" height="145.7813" id="Agent" rx="2.5" ry="2.5" style="stroke:#181818;stroke-width:0.5;" width="585" x="984.5" y="310"/><ellipse cx="1250.75" cy="326" fill="#ADD1B2" rx="11" ry="11" style="stroke:#181818;stroke-width:1.0;"/><path d="M1253.0938,321.6719 C1252.1563,321.2344 1251.5625,321.0938 1250.6875,321.0938 C1248.0625,321.0938 1246.0625,323.1719 1246.0625,325.8906 L1246.0625,327.0156 C1246.0625,329.5938 1248.1719,331.4844 1251.0625,331.4844 C1252.2813,331.4844 1253.4375,331.1875 1254.1875,330.6406 C1254.7656,330.2344 1255.0938,329.7813 1255.0938,329.3906 C1255.0938,328.9375 1254.7031,328.5469 1254.2344,328.5469 C1254.0156,328.5469 1253.8125,328.625 1253.625,328.8125 C1253.1719,329.2969 1253.1719,329.2969 1252.9844,329.3906 C1252.5625,329.6563 1251.875,329.7813 1251.1094,329.7813 C1249.0625,329.7813 1247.7656,328.6875 1247.7656,326.9844 L1247.7656,325.8906 C1247.7656,324.1094 1249.0156,322.7969 1250.75,322.7969 C1251.3281,322.7969 1251.9375,322.9531 1252.4063,323.2031 C1252.8906,323.4844 1253.0625,323.7031 1253.1563,324.1094 C1253.2188,324.5156 1253.25,324.6406 1253.3906,324.7656 C1253.5313,324.9063 1253.7656,325.0156 1253.9844,325.0156 C1254.25,325.0156 1254.5156,324.875 1254.6875,324.6563 C1254.7969,324.5 1254.8281,324.3125 1254.8281,323.8906 L1254.8281,322.4688 C1254.8281,322.0313 1254.8125,321.9063 1254.7188,321.75 C1254.5625,321.4844 1254.2813,321.3438 1253.9844,321.3438 C1253.6875,321.3438 1253.4844,321.4375 1253.2656,321.75 L1253.0938,321.6719 Z " fill="#000000"/><text fill="#000000" font-family="sans-serif" font-size="14" lengthAdjust="spacing" textLength="44" x="1271.25" y="330.8467">Agent</text><line style="stroke:#181818;stroke-width:0.5;" x1="985.5" x2="1568.5" y1="342" y2="342"/><rect fill="none" height="6" style="stroke:#C82930;stroke-width:1.0;" width="6" x="992.5" y="352.6484"/><text fill="#000000" font-family="sans-serif" font-size="14" lengthAdjust="spacing" textLength="231" x="1004.5" y="358.9951">mCallback : Callback::SharedPtr</text><rect fill="none" height="6" style="stroke:#C82930;stroke-width:1.0;" width="6" x="992.5" y="368.9453"/><text fill="#000000" font-family="sans-serif" font-size="14" lengthAdjust="spacing" textLength="176" x="1004.5" y="375.292">mServer : const Server&amp;</text><line style="stroke:#181818;stroke-width:0.5;" x1="985.5" x2="1568.5" y1="382.5938" y2="382.5938"/><rect fill="#F24D5C" height="6" style="stroke:#C82930;stroke-width:1.0;" width="6" x="992.5" y="393.2422"/><text fill="#000000" font-family="sans-serif" font-size="14" lengthAdjust="spacing" textLength="419" x="1004.5" y="399.5889">Agent(const Server&amp; server, Callback::SharedPtr callback)</text><ellipse cx="995.5" cy="412.5391" fill="#84BE84" rx="3" ry="3" style="stroke:#038048;stroke-width:1.0;"/><text fill="#000000" font-family="sans-serif" font-size="14" lengthAdjust="spacing" textLength="65" x="1004.5" y="415.8857">~Agent()</text><ellipse cx="995.5" cy="428.8359" fill="#84BE84" rx="3" ry="3" style="stroke:#038048;stroke-width:1.0;"/><text fill="#000000" font-family="sans-serif" font-size="14" lengthAdjust="spacing" textLength="559" x="1004.5" y="432.1826">doTask(Receipt::Mode mode, Task task, std::string&amp; result) : Receipt {query}</text><ellipse cx="995.5" cy="445.1328" fill="#84BE84" rx="3" ry="3" style="stroke:#038048;stroke-width:1.0;"/><text fill="#000000" font-family="sans-serif" font-size="14" lengthAdjust="spacing" text-decoration="underline" textLength="507" x="1004.5" y="448.4795">create(const Server&amp; server, Callback::SharedPtr callback) : SharedPtr</text></g><!--class Callback--><g id="elem_Callback"><rect codeLine="13" fill="#F1F1F1" height="178.375" id="Callback" rx="2.5" ry="2.5" style="stroke:#181818;stroke-width:0.5;" width="612" x="731" y="531"/><ellipse cx="1002.25" cy="547" fill="#ADD1B2" rx="11" ry="11" style="stroke:#181818;stroke-width:1.0;"/><path d="M1004.5938,542.6719 C1003.6563,542.2344 1003.0625,542.0938 1002.1875,542.0938 C999.5625,542.0938 997.5625,544.1719 997.5625,546.8906 L997.5625,548.0156 C997.5625,550.5938 999.6719,552.4844 1002.5625,552.4844 C1003.7813,552.4844 1004.9375,552.1875 1005.6875,551.6406 C1006.2656,551.2344 1006.5938,550.7813 1006.5938,550.3906 C1006.5938,549.9375 1006.2031,549.5469 1005.7344,549.5469 C1005.5156,549.5469 1005.3125,549.625 1005.125,549.8125 C1004.6719,550.2969 1004.6719,550.2969 1004.4844,550.3906 C1004.0625,550.6563 1003.375,550.7813 1002.6094,550.7813 C1000.5625,550.7813 999.2656,549.6875 999.2656,547.9844 L999.2656,546.8906 C999.2656,545.1094 1000.5156,543.7969 1002.25,543.7969 C1002.8281,543.7969 1003.4375,543.9531 1003.9063,544.2031 C1004.3906,544.4844 1004.5625,544.7031 1004.6563,545.1094 C1004.7188,545.5156 1004.75,545.6406 1004.8906,545.7656 C1005.0313,545.9063 1005.2656,546.0156 1005.4844,546.0156 C1005.75,546.0156 1006.0156,545.875 1006.1875,545.6563 C1006.2969,545.5 1006.3281,545.3125 1006.3281,544.8906 L1006.3281,543.4688 C1006.3281,543.0313 1006.3125,542.9063 1006.2188,542.75 C1006.0625,542.4844 1005.7813,542.3438 1005.4844,542.3438 C1005.1875,542.3438 1004.9844,542.4375 1004.7656,542.75 L1004.5938,542.6719 Z " fill="#000000"/><text fill="#000000" font-family="sans-serif" font-size="14" lengthAdjust="spacing" textLength="61" x="1022.75" y="551.8467">Callback</text><line style="stroke:#181818;stroke-width:0.5;" x1="732" x2="1342" y1="563" y2="563"/><rect fill="none" height="6" style="stroke:#C82930;stroke-width:1.0;" width="6" x="739" y="573.6484"/><text fill="#000000" font-family="sans-serif" font-size="14" lengthAdjust="spacing" textLength="306" x="751" y="579.9951">mMessages : std::map&lt;Key_t, Message_t&gt;</text><line style="stroke:#181818;stroke-width:0.5;" x1="732" x2="1342" y1="587.2969" y2="587.2969"/><ellipse cx="742" cy="600.9453" fill="#84BE84" rx="3" ry="3" style="stroke:#038048;stroke-width:1.0;"/><text fill="#000000" font-family="sans-serif" font-size="14" lengthAdjust="spacing" textLength="71" x="751" y="604.292">Callback()</text><ellipse cx="742" cy="617.2422" fill="#84BE84" rx="3" ry="3" style="stroke:#038048;stroke-width:1.0;"/><text fill="#000000" font-family="sans-serif" font-size="14" lengthAdjust="spacing" textLength="82" x="751" y="620.5889">~Callback()</text><ellipse cx="742" cy="633.5391" fill="#84BE84" rx="3" ry="3" style="stroke:#038048;stroke-width:1.0;"/><text fill="#000000" font-family="sans-serif" font-size="14" lengthAdjust="spacing" textLength="586" x="751" y="636.8857">operator&lt;&lt;(std::ostream&amp; ostr, const Callback::SharedPtr&amp; cb) : std :: ostream&amp;</text><ellipse cx="742" cy="649.8359" fill="#84BE84" rx="3" ry="3" style="stroke:#038048;stroke-width:1.0;"/><text fill="#000000" font-family="sans-serif" font-size="14" lengthAdjust="spacing" textLength="521" x="751" y="653.1826">getFirst(const Receipt&amp; receipt, Type type) : std::optional&lt;Message_t&gt;</text><ellipse cx="742" cy="666.1328" fill="#84BE84" rx="3" ry="3" style="stroke:#038048;stroke-width:1.0;"/><text fill="#000000" font-family="sans-serif" font-size="14" lengthAdjust="spacing" textLength="526" x="751" y="669.4795">waitFirst(const Receipt&amp; receipt, Type type) : std::optional&lt;Message_t&gt;</text><ellipse cx="742" cy="682.4297" fill="#84BE84" rx="3" ry="3" style="stroke:#038048;stroke-width:1.0;"/><text fill="#000000" font-family="sans-serif" font-size="14" lengthAdjust="spacing" textLength="88" x="751" y="685.7764">clear() : void</text><ellipse cx="742" cy="698.7266" fill="#84BE84" rx="3" ry="3" style="stroke:#038048;stroke-width:1.0;"/><text fill="#000000" font-family="sans-serif" font-size="14" lengthAdjust="spacing" textLength="477" x="751" y="702.0732">notify(TaskId taskId, Type type, const std::string&amp; message) : void</text></g><!--class Receipt--><g id="elem_Receipt"><rect codeLine="25" fill="#F1F1F1" height="259.8594" id="Receipt" rx="2.5" ry="2.5" style="stroke:#181818;stroke-width:0.5;" width="418" x="828" y="785"/><ellipse cx="1004.25" cy="801" fill="#ADD1B2" rx="11" ry="11" style="stroke:#181818;stroke-width:1.0;"/><path d="M1006.5938,796.6719 C1005.6563,796.2344 1005.0625,796.0938 1004.1875,796.0938 C1001.5625,796.0938 999.5625,798.1719 999.5625,800.8906 L999.5625,802.0156 C999.5625,804.5938 1001.6719,806.4844 1004.5625,806.4844 C1005.7813,806.4844 1006.9375,806.1875 1007.6875,805.6406 C1008.2656,805.2344 1008.5938,804.7813 1008.5938,804.3906 C1008.5938,803.9375 1008.2031,803.5469 1007.7344,803.5469 C1007.5156,803.5469 1007.3125,803.625 1007.125,803.8125 C1006.6719,804.2969 1006.6719,804.2969 1006.4844,804.3906 C1006.0625,804.6563 1005.375,804.7813 1004.6094,804.7813 C1002.5625,804.7813 1001.2656,803.6875 1001.2656,801.9844 L1001.2656,800.8906 C1001.2656,799.1094 1002.5156,797.7969 1004.25,797.7969 C1004.8281,797.7969 1005.4375,797.9531 1005.9063,798.2031 C1006.3906,798.4844 1006.5625,798.7031 1006.6563,799.1094 C1006.7188,799.5156 1006.75,799.6406 1006.8906,799.7656 C1007.0313,799.9063 1007.2656,800.0156 1007.4844,800.0156 C1007.75,800.0156 1008.0156,799.875 1008.1875,799.6563 C1008.2969,799.5 1008.3281,799.3125 1008.3281,798.8906 L1008.3281,797.4688 C1008.3281,797.0313 1008.3125,796.9063 1008.2188,796.75 C1008.0625,796.4844 1007.7813,796.3438 1007.4844,796.3438 C1007.1875,796.3438 1006.9844,796.4375 1006.7656,796.75 L1006.5938,796.6719 Z " fill="#000000"/><text fill="#000000" font-family="sans-serif" font-size="14" lengthAdjust="spacing" textLength="57" x="1024.75" y="805.8467">Receipt</text><line style="stroke:#181818;stroke-width:0.5;" x1="829" x2="1245" y1="817" y2="817"/><rect fill="none" height="6" style="stroke:#C82930;stroke-width:1.0;" width="6" x="836" y="827.6484"/><text fill="#000000" font-family="sans-serif" font-size="14" lengthAdjust="spacing" textLength="105" x="848" y="833.9951">mMode : Mode</text><rect fill="none" height="6" style="stroke:#C82930;stroke-width:1.0;" width="6" x="836" y="843.9453"/><text fill="#000000" font-family="sans-serif" font-size="14" lengthAdjust="spacing" textLength="119" x="848" y="850.292">mStatus : Status</text><rect fill="none" height="6" style="stroke:#C82930;stroke-width:1.0;" width="6" x="836" y="860.2422"/><text fill="#000000" font-family="sans-serif" font-size="14" lengthAdjust="spacing" textLength="382" x="848" y="866.5889">mEndTime : time_point&lt;std::chrono::system_clock&gt;</text><rect fill="none" height="6" style="stroke:#C82930;stroke-width:1.0;" width="6" x="836" y="876.5391"/><text fill="#000000" font-family="sans-serif" font-size="14" lengthAdjust="spacing" textLength="392" x="848" y="882.8857">mStartTime : time_point&lt;std::chrono::system_clock&gt;</text><rect fill="none" height="6" style="stroke:#C82930;stroke-width:1.0;" width="6" x="836" y="892.8359"/><text fill="#000000" font-family="sans-serif" font-size="14" lengthAdjust="spacing" textLength="132" x="848" y="899.1826">mTaskId : uint32_t</text><line style="stroke:#181818;stroke-width:0.5;" x1="829" x2="1245" y1="906.4844" y2="906.4844"/><ellipse cx="839" cy="920.1328" fill="#84BE84" rx="3" ry="3" style="stroke:#038048;stroke-width:1.0;"/><text fill="#000000" font-family="sans-serif" font-size="14" lengthAdjust="spacing" textLength="151" x="848" y="923.4795">Receipt(Mode mode)</text><ellipse cx="839" cy="936.4297" fill="#84BE84" rx="3" ry="3" style="stroke:#038048;stroke-width:1.0;"/><text fill="#000000" font-family="sans-serif" font-size="14" lengthAdjust="spacing" textLength="293" x="848" y="939.7764">getEndTime() : ChronotTime_t&amp; {query}</text><ellipse cx="839" cy="952.7266" fill="#84BE84" rx="3" ry="3" style="stroke:#038048;stroke-width:1.0;"/><text fill="#000000" font-family="sans-serif" font-size="14" lengthAdjust="spacing" textLength="303" x="848" y="956.0732">getStartTime() : ChronotTime_t&amp; {query}</text><ellipse cx="839" cy="969.0234" fill="#84BE84" rx="3" ry="3" style="stroke:#038048;stroke-width:1.0;"/><text fill="#000000" font-family="sans-serif" font-size="14" lengthAdjust="spacing" textLength="202" x="848" y="972.3701">getTaskId() : TaskId {query}</text><ellipse cx="839" cy="985.3203" fill="#84BE84" rx="3" ry="3" style="stroke:#038048;stroke-width:1.0;"/><text fill="#000000" font-family="sans-serif" font-size="14" lengthAdjust="spacing" textLength="240" x="848" y="988.667">getExecutionMode() : int {query}</text><ellipse cx="839" cy="1001.6172" fill="#84BE84" rx="3" ry="3" style="stroke:#038048;stroke-width:1.0;"/><text fill="#000000" font-family="sans-serif" font-size="14" lengthAdjust="spacing" textLength="176" x="848" y="1004.9639">getStatus() : int {query}</text><ellipse cx="839" cy="1017.9141" fill="#84BE84" rx="3" ry="3" style="stroke:#038048;stroke-width:1.0;"/><text fill="#000000" font-family="sans-serif" font-size="14" lengthAdjust="spacing" textLength="139" x="848" y="1021.2607">setEndTime() : void</text><ellipse cx="839" cy="1034.2109" fill="#84BE84" rx="3" ry="3" style="stroke:#038048;stroke-width:1.0;"/><text fill="#000000" font-family="sans-serif" font-size="14" lengthAdjust="spacing" textLength="216" x="848" y="1037.5576">setStatus(Status status) : void</text></g><!--class Server--><g id="elem_Server"><rect codeLine="42" fill="#F1F1F1" height="194.6719" id="Server" rx="2.5" ry="2.5" style="stroke:#181818;stroke-width:0.5;" width="347" x="1457.5" y="523"/><ellipse cx="1603.25" cy="539" fill="#ADD1B2" rx="11" ry="11" style="stroke:#181818;stroke-width:1.0;"/><path d="M1605.5938,534.6719 C1604.6563,534.2344 1604.0625,534.0938 1603.1875,534.0938 C1600.5625,534.0938 1598.5625,536.1719 1598.5625,538.8906 L1598.5625,540.0156 C1598.5625,542.5938 1600.6719,544.4844 1603.5625,544.4844 C1604.7813,544.4844 1605.9375,544.1875 1606.6875,543.6406 C1607.2656,543.2344 1607.5938,542.7813 1607.5938,542.3906 C1607.5938,541.9375 1607.2031,541.5469 1606.7344,541.5469 C1606.5156,541.5469 1606.3125,541.625 1606.125,541.8125 C1605.6719,542.2969 1605.6719,542.2969 1605.4844,542.3906 C1605.0625,542.6563 1604.375,542.7813 1603.6094,542.7813 C1601.5625,542.7813 1600.2656,541.6875 1600.2656,539.9844 L1600.2656,538.8906 C1600.2656,537.1094 1601.5156,535.7969 1603.25,535.7969 C1603.8281,535.7969 1604.4375,535.9531 1604.9063,536.2031 C1605.3906,536.4844 1605.5625,536.7031 1605.6563,537.1094 C1605.7188,537.5156 1605.75,537.6406 1605.8906,537.7656 C1606.0313,537.9063 1606.2656,538.0156 1606.4844,538.0156 C1606.75,538.0156 1607.0156,537.875 1607.1875,537.6563 C1607.2969,537.5 1607.3281,537.3125 1607.3281,536.8906 L1607.3281,535.4688 C1607.3281,535.0313 1607.3125,534.9063 1607.2188,534.75 C1607.0625,534.4844 1606.7813,534.3438 1606.4844,534.3438 C1606.1875,534.3438 1605.9844,534.4375 1605.7656,534.75 L1605.5938,534.6719 Z " fill="#000000"/><text fill="#000000" font-family="sans-serif" font-size="14" lengthAdjust="spacing" textLength="47" x="1623.75" y="543.8467">Server</text><line style="stroke:#181818;stroke-width:0.5;" x1="1458.5" x2="1803.5" y1="555" y2="555"/><rect fill="none" height="6" style="stroke:#C82930;stroke-width:1.0;" width="6" x="1465.5" y="565.6484"/><text fill="#000000" font-family="sans-serif" font-size="14" lengthAdjust="spacing" textLength="119" x="1477.5" y="571.9951">mStatus : Status</text><rect fill="none" height="6" style="stroke:#C82930;stroke-width:1.0;" width="6" x="1465.5" y="581.9453"/><text fill="#000000" font-family="sans-serif" font-size="14" lengthAdjust="spacing" textLength="321" x="1477.5" y="588.292">mConditionVariable : std::condition_variable</text><rect fill="none" height="6" style="stroke:#C82930;stroke-width:1.0;" width="6" x="1465.5" y="598.2422"/><text fill="#000000" font-family="sans-serif" font-size="14" lengthAdjust="spacing" textLength="150" x="1477.5" y="604.5889">mMutex : std::mutex</text><rect fill="none" height="6" style="stroke:#C82930;stroke-width:1.0;" width="6" x="1465.5" y="614.5391"/><text fill="#000000" font-family="sans-serif" font-size="14" lengthAdjust="spacing" textLength="312" x="1477.5" y="620.8857">mThreadPtr : std::unique_ptr&lt;std::thread&gt;</text><line style="stroke:#181818;stroke-width:0.5;" x1="1458.5" x2="1803.5" y1="628.1875" y2="628.1875"/><ellipse cx="1468.5" cy="641.8359" fill="#84BE84" rx="3" ry="3" style="stroke:#038048;stroke-width:1.0;"/><text fill="#000000" font-family="sans-serif" font-size="14" lengthAdjust="spacing" textLength="57" x="1477.5" y="645.1826">Server()</text><ellipse cx="1468.5" cy="658.1328" fill="#84BE84" rx="3" ry="3" style="stroke:#038048;stroke-width:1.0;"/><text fill="#000000" font-family="sans-serif" font-size="14" lengthAdjust="spacing" textLength="68" x="1477.5" y="661.4795">~Server()</text><rect fill="#F24D5C" height="6" style="stroke:#C82930;stroke-width:1.0;" width="6" x="1465.5" y="671.4297"/><text fill="#000000" font-family="sans-serif" font-size="14" lengthAdjust="spacing" textLength="76" x="1477.5" y="677.7764">run() : void</text><ellipse cx="1468.5" cy="690.7266" fill="#84BE84" rx="3" ry="3" style="stroke:#038048;stroke-width:1.0;"/><text fill="#000000" font-family="sans-serif" font-size="14" lengthAdjust="spacing" textLength="88" x="1477.5" y="694.0732">start() : void</text><ellipse cx="1468.5" cy="707.0234" fill="#84BE84" rx="3" ry="3" style="stroke:#038048;stroke-width:1.0;"/><text fill="#000000" font-family="sans-serif" font-size="14" lengthAdjust="spacing" textLength="86" x="1477.5" y="710.3701">stop() : void</text></g><!--class Agent::Task--><g id="elem_Agent::Task"><rect codeLine="55" fill="#F1F1F1" height="96.8906" id="Agent::Task" rx="2.5" ry="2.5" style="stroke:#181818;stroke-width:0.5;" width="119" x="256.5" y="116.5"/><ellipse cx="271.5" cy="132.5" fill="#EB937F" rx="11" ry="11" style="stroke:#181818;stroke-width:1.0;"/><path d="M270.2969,133.375 L271.75,133.375 L271.75,133.4844 C271.75,133.8906 271.7813,134.0469 271.8594,134.2031 C272.0156,134.4531 272.2969,134.6094 272.5938,134.6094 C272.8438,134.6094 273.1094,134.4688 273.2656,134.25 C273.3906,134.0938 273.4219,133.9375 273.4219,133.4844 L273.4219,131.5625 C273.4219,131.4063 273.4219,131.3594 273.4063,131.2031 C273.3438,130.7344 273.0313,130.4219 272.5781,130.4219 C272.3281,130.4219 272.0625,130.5625 271.8906,130.7813 C271.7813,130.9531 271.75,131.1094 271.75,131.5625 L271.75,131.6875 L270.2969,131.6875 L270.2969,129.2813 L274.2813,129.2813 L274.2813,130.1406 C274.2813,130.5469 274.3125,130.7188 274.3906,130.875 C274.5625,131.125 274.8438,131.2813 275.125,131.2813 C275.3906,131.2813 275.6563,131.1406 275.8281,130.9219 C275.9375,130.75 275.9688,130.6094 275.9688,130.1406 L275.9688,127.5938 L268.3438,127.5938 C267.9063,127.5938 267.7813,127.6094 267.625,127.7031 C267.375,127.8594 267.2188,128.1563 267.2188,128.4375 C267.2188,128.7188 267.3594,128.9688 267.5781,129.1406 C267.7344,129.25 267.9219,129.2813 268.3438,129.2813 L268.5938,129.2813 L268.5938,135.7969 L268.3438,135.7969 C267.9375,135.7969 267.7813,135.8125 267.625,135.9219 C267.375,136.0938 267.2188,136.3594 267.2188,136.6563 C267.2188,136.9219 267.3594,137.1719 267.5781,137.3281 C267.7188,137.4531 267.9531,137.5 268.3438,137.5 L276.3438,137.5 L276.3438,134.9219 C276.3438,134.4844 276.3125,134.3438 276.2344,134.1875 C276.0625,133.9375 275.7813,133.7813 275.5,133.7813 C275.2344,133.7813 274.9688,133.8906 274.7969,134.1406 C274.6875,134.2969 274.6563,134.4375 274.6563,134.9219 L274.6563,135.7969 L270.2969,135.7969 L270.2969,133.375 Z " fill="#000000"/><text fill="#000000" font-family="sans-serif" font-size="14" lengthAdjust="spacing" textLength="87" x="285.5" y="137.3467">Agent::Task</text><line style="stroke:#181818;stroke-width:0.5;" x1="257.5" x2="374.5" y1="148.5" y2="148.5"/><text fill="#000000" font-family="sans-serif" font-size="14" lengthAdjust="spacing" textLength="84" x="262.5" y="165.4951">BlockMe_3s</text><text fill="#000000" font-family="sans-serif" font-size="14" lengthAdjust="spacing" textLength="13" x="262.5" y="181.792">Pi</text><text fill="#000000" font-family="sans-serif" font-size="14" lengthAdjust="spacing" textLength="76" x="262.5" y="198.0889">PingMe_5x</text><line style="stroke:#181818;stroke-width:0.5;" x1="257.5" x2="374.5" y1="205.3906" y2="205.3906"/></g><!--class Callback::Type--><g id="elem_Callback::Type"><rect codeLine="62" fill="#F1F1F1" height="80.5938" id="Callback::Type" rx="2.5" ry="2.5" style="stroke:#181818;stroke-width:0.5;" width="139" x="410.5" y="124.5"/><ellipse cx="425.5" cy="140.5" fill="#EB937F" rx="11" ry="11" style="stroke:#181818;stroke-width:1.0;"/><path d="M424.2969,141.375 L425.75,141.375 L425.75,141.4844 C425.75,141.8906 425.7813,142.0469 425.8594,142.2031 C426.0156,142.4531 426.2969,142.6094 426.5938,142.6094 C426.8438,142.6094 427.1094,142.4688 427.2656,142.25 C427.3906,142.0938 427.4219,141.9375 427.4219,141.4844 L427.4219,139.5625 C427.4219,139.4063 427.4219,139.3594 427.4063,139.2031 C427.3438,138.7344 427.0313,138.4219 426.5781,138.4219 C426.3281,138.4219 426.0625,138.5625 425.8906,138.7813 C425.7813,138.9531 425.75,139.1094 425.75,139.5625 L425.75,139.6875 L424.2969,139.6875 L424.2969,137.2813 L428.2813,137.2813 L428.2813,138.1406 C428.2813,138.5469 428.3125,138.7188 428.3906,138.875 C428.5625,139.125 428.8438,139.2813 429.125,139.2813 C429.3906,139.2813 429.6563,139.1406 429.8281,138.9219 C429.9375,138.75 429.9688,138.6094 429.9688,138.1406 L429.9688,135.5938 L422.3438,135.5938 C421.9063,135.5938 421.7813,135.6094 421.625,135.7031 C421.375,135.8594 421.2188,136.1563 421.2188,136.4375 C421.2188,136.7188 421.3594,136.9688 421.5781,137.1406 C421.7344,137.25 421.9219,137.2813 422.3438,137.2813 L422.5938,137.2813 L422.5938,143.7969 L422.3438,143.7969 C421.9375,143.7969 421.7813,143.8125 421.625,143.9219 C421.375,144.0938 421.2188,144.3594 421.2188,144.6563 C421.2188,144.9219 421.3594,145.1719 421.5781,145.3281 C421.7188,145.4531 421.9531,145.5 422.3438,145.5 L430.3438,145.5 L430.3438,142.9219 C430.3438,142.4844 430.3125,142.3438 430.2344,142.1875 C430.0625,141.9375 429.7813,141.7813 429.5,141.7813 C429.2344,141.7813 428.9688,141.8906 428.7969,142.1406 C428.6875,142.2969 428.6563,142.4375 428.6563,142.9219 L428.6563,143.7969 L424.2969,143.7969 L424.2969,141.375 Z " fill="#000000"/><text fill="#000000" font-family="sans-serif" font-size="14" lengthAdjust="spacing" textLength="107" x="439.5" y="145.3467">Callback::Type</text><line style="stroke:#181818;stroke-width:0.5;" x1="411.5" x2="548.5" y1="156.5" y2="156.5"/><text fill="#000000" font-family="sans-serif" font-size="14" lengthAdjust="spacing" textLength="100" x="416.5" y="173.4951">NOTIFICATION</text><text fill="#000000" font-family="sans-serif" font-size="14" lengthAdjust="spacing" textLength="54" x="416.5" y="189.792">RESULT</text><line style="stroke:#181818;stroke-width:0.5;" x1="411.5" x2="548.5" y1="197.0938" y2="197.0938"/></g><!--class Receipt::Mode--><g id="elem_Receipt::Mode"><rect codeLine="68" fill="#F1F1F1" height="80.5938" id="Receipt::Mode" rx="2.5" ry="2.5" style="stroke:#181818;stroke-width:0.5;" width="138" x="585" y="124.5"/><ellipse cx="600" cy="140.5" fill="#EB937F" rx="11" ry="11" style="stroke:#181818;stroke-width:1.0;"/><path d="M598.7969,141.375 L600.25,141.375 L600.25,141.4844 C600.25,141.8906 600.2813,142.0469 600.3594,142.2031 C600.5156,142.4531 600.7969,142.6094 601.0938,142.6094 C601.3438,142.6094 601.6094,142.4688 601.7656,142.25 C601.8906,142.0938 601.9219,141.9375 601.9219,141.4844 L601.9219,139.5625 C601.9219,139.4063 601.9219,139.3594 601.9063,139.2031 C601.8438,138.7344 601.5313,138.4219 601.0781,138.4219 C600.8281,138.4219 600.5625,138.5625 600.3906,138.7813 C600.2813,138.9531 600.25,139.1094 600.25,139.5625 L600.25,139.6875 L598.7969,139.6875 L598.7969,137.2813 L602.7813,137.2813 L602.7813,138.1406 C602.7813,138.5469 602.8125,138.7188 602.8906,138.875 C603.0625,139.125 603.3438,139.2813 603.625,139.2813 C603.8906,139.2813 604.1563,139.1406 604.3281,138.9219 C604.4375,138.75 604.4688,138.6094 604.4688,138.1406 L604.4688,135.5938 L596.8438,135.5938 C596.4063,135.5938 596.2813,135.6094 596.125,135.7031 C595.875,135.8594 595.7188,136.1563 595.7188,136.4375 C595.7188,136.7188 595.8594,136.9688 596.0781,137.1406 C596.2344,137.25 596.4219,137.2813 596.8438,137.2813 L597.0938,137.2813 L597.0938,143.7969 L596.8438,143.7969 C596.4375,143.7969 596.2813,143.8125 596.125,143.9219 C595.875,144.0938 595.7188,144.3594 595.7188,144.6563 C595.7188,144.9219 595.8594,145.1719 596.0781,145.3281 C596.2188,145.4531 596.4531,145.5 596.8438,145.5 L604.8438,145.5 L604.8438,142.9219 C604.8438,142.4844 604.8125,142.3438 604.7344,142.1875 C604.5625,141.9375 604.2813,141.7813 604,141.7813 C603.7344,141.7813 603.4688,141.8906 603.2969,142.1406 C603.1875,142.2969 603.1563,142.4375 603.1563,142.9219 L603.1563,143.7969 L598.7969,143.7969 L598.7969,141.375 Z " fill="#000000"/><text fill="#000000" font-family="sans-serif" font-size="14" lengthAdjust="spacing" textLength="106" x="614" y="145.3467">Receipt::Mode</text><line style="stroke:#181818;stroke-width:0.5;" x1="586" x2="722" y1="156.5" y2="156.5"/><text fill="#000000" font-family="sans-serif" font-size="14" lengthAdjust="spacing" textLength="42" x="591" y="173.4951">Async</text><text fill="#000000" font-family="sans-serif" font-size="14" lengthAdjust="spacing" textLength="62" x="591" y="189.792">Blocking</text><line style="stroke:#181818;stroke-width:0.5;" x1="586" x2="722" y1="197.0938" y2="197.0938"/></g><!--class Receipt::Status--><g id="elem_Receipt::Status"><rect codeLine="74" fill="#F1F1F1" height="80.5938" id="Receipt::Status" rx="2.5" ry="2.5" style="stroke:#181818;stroke-width:0.5;" width="145" x="243.5" y="342"/><ellipse cx="258.5" cy="358" fill="#EB937F" rx="11" ry="11" style="stroke:#181818;stroke-width:1.0;"/><path d="M257.2969,358.875 L258.75,358.875 L258.75,358.9844 C258.75,359.3906 258.7813,359.5469 258.8594,359.7031 C259.0156,359.9531 259.2969,360.1094 259.5938,360.1094 C259.8438,360.1094 260.1094,359.9688 260.2656,359.75 C260.3906,359.5938 260.4219,359.4375 260.4219,358.9844 L260.4219,357.0625 C260.4219,356.9063 260.4219,356.8594 260.4063,356.7031 C260.3438,356.2344 260.0313,355.9219 259.5781,355.9219 C259.3281,355.9219 259.0625,356.0625 258.8906,356.2813 C258.7813,356.4531 258.75,356.6094 258.75,357.0625 L258.75,357.1875 L257.2969,357.1875 L257.2969,354.7813 L261.2813,354.7813 L261.2813,355.6406 C261.2813,356.0469 261.3125,356.2188 261.3906,356.375 C261.5625,356.625 261.8438,356.7813 262.125,356.7813 C262.3906,356.7813 262.6563,356.6406 262.8281,356.4219 C262.9375,356.25 262.9688,356.1094 262.9688,355.6406 L262.9688,353.0938 L255.3438,353.0938 C254.9063,353.0938 254.7813,353.1094 254.625,353.2031 C254.375,353.3594 254.2188,353.6563 254.2188,353.9375 C254.2188,354.2188 254.3594,354.4688 254.5781,354.6406 C254.7344,354.75 254.9219,354.7813 255.3438,354.7813 L255.5938,354.7813 L255.5938,361.2969 L255.3438,361.2969 C254.9375,361.2969 254.7813,361.3125 254.625,361.4219 C254.375,361.5938 254.2188,361.8594 254.2188,362.1563 C254.2188,362.4219 254.3594,362.6719 254.5781,362.8281 C254.7188,362.9531 254.9531,363 255.3438,363 L263.3438,363 L263.3438,360.4219 C263.3438,359.9844 263.3125,359.8438 263.2344,359.6875 C263.0625,359.4375 262.7813,359.2813 262.5,359.2813 C262.2344,359.2813 261.9688,359.3906 261.7969,359.6406 C261.6875,359.7969 261.6563,359.9375 261.6563,360.4219 L261.6563,361.2969 L257.2969,361.2969 L257.2969,358.875 Z " fill="#000000"/><text fill="#000000" font-family="sans-serif" font-size="14" lengthAdjust="spacing" textLength="113" x="272.5" y="362.8467">Receipt::Status</text><line style="stroke:#181818;stroke-width:0.5;" x1="244.5" x2="387.5" y1="374" y2="374"/><text fill="#000000" font-family="sans-serif" font-size="14" lengthAdjust="spacing" textLength="30" x="249.5" y="390.9951">FAIL</text><text fill="#000000" font-family="sans-serif" font-size="14" lengthAdjust="spacing" textLength="21" x="249.5" y="407.292">OK</text><line style="stroke:#181818;stroke-width:0.5;" x1="244.5" x2="387.5" y1="414.5938" y2="414.5938"/></g><!--class Server::Status--><g id="elem_Server::Status"><rect codeLine="80" fill="#F1F1F1" height="113.1875" id="Server::Status" rx="2.5" ry="2.5" style="stroke:#181818;stroke-width:0.5;" width="135" x="423.5" y="326"/><ellipse cx="438.5" cy="342" fill="#EB937F" rx="11" ry="11" style="stroke:#181818;stroke-width:1.0;"/><path d="M437.2969,342.875 L438.75,342.875 L438.75,342.9844 C438.75,343.3906 438.7813,343.5469 438.8594,343.7031 C439.0156,343.9531 439.2969,344.1094 439.5938,344.1094 C439.8438,344.1094 440.1094,343.9688 440.2656,343.75 C440.3906,343.5938 440.4219,343.4375 440.4219,342.9844 L440.4219,341.0625 C440.4219,340.9063 440.4219,340.8594 440.4063,340.7031 C440.3438,340.2344 440.0313,339.9219 439.5781,339.9219 C439.3281,339.9219 439.0625,340.0625 438.8906,340.2813 C438.7813,340.4531 438.75,340.6094 438.75,341.0625 L438.75,341.1875 L437.2969,341.1875 L437.2969,338.7813 L441.2813,338.7813 L441.2813,339.6406 C441.2813,340.0469 441.3125,340.2188 441.3906,340.375 C441.5625,340.625 441.8438,340.7813 442.125,340.7813 C442.3906,340.7813 442.6563,340.6406 442.8281,340.4219 C442.9375,340.25 442.9688,340.1094 442.9688,339.6406 L442.9688,337.0938 L435.3438,337.0938 C434.9063,337.0938 434.7813,337.1094 434.625,337.2031 C434.375,337.3594 434.2188,337.6563 434.2188,337.9375 C434.2188,338.2188 434.3594,338.4688 434.5781,338.6406 C434.7344,338.75 434.9219,338.7813 435.3438,338.7813 L435.5938,338.7813 L435.5938,345.2969 L435.3438,345.2969 C434.9375,345.2969 434.7813,345.3125 434.625,345.4219 C434.375,345.5938 434.2188,345.8594 434.2188,346.1563 C434.2188,346.4219 434.3594,346.6719 434.5781,346.8281 C434.7188,346.9531 434.9531,347 435.3438,347 L443.3438,347 L443.3438,344.4219 C443.3438,343.9844 443.3125,343.8438 443.2344,343.6875 C443.0625,343.4375 442.7813,343.2813 442.5,343.2813 C442.2344,343.2813 441.9688,343.3906 441.7969,343.6406 C441.6875,343.7969 441.6563,343.9375 441.6563,344.4219 L441.6563,345.2969 L437.2969,345.2969 L437.2969,342.875 Z " fill="#000000"/><text fill="#000000" font-family="sans-serif" font-size="14" lengthAdjust="spacing" textLength="103" x="452.5" y="346.8467">Server::Status</text><line style="stroke:#181818;stroke-width:0.5;" x1="424.5" x2="557.5" y1="358" y2="358"/><text fill="#000000" font-family="sans-serif" font-size="14" lengthAdjust="spacing" textLength="24" x="429.5" y="374.9951">Init</text><text fill="#000000" font-family="sans-serif" font-size="14" lengthAdjust="spacing" textLength="27" x="429.5" y="391.292">Run</text><text fill="#000000" font-family="sans-serif" font-size="14" lengthAdjust="spacing" textLength="37" x="429.5" y="407.5889">Start</text><text fill="#000000" font-family="sans-serif" font-size="14" lengthAdjust="spacing" textLength="35" x="429.5" y="423.8857">Stop</text><line style="stroke:#181818;stroke-width:0.5;" x1="424.5" x2="557.5" y1="431.1875" y2="431.1875"/></g><!--class Callback::Message_t--><g id="elem_Callback::Message_t"><rect codeLine="88" fill="#F1F1F1" height="80.5938" id="Callback::Message_t" rx="2.5" ry="2.5" style="stroke:#181818;stroke-width:0.5;" width="276" x="594" y="342"/><ellipse cx="654.75" cy="358" fill="#ADD1B2" rx="11" ry="11" style="stroke:#181818;stroke-width:1.0;"/><path d="M657.0938,353.6719 C656.1563,353.2344 655.5625,353.0938 654.6875,353.0938 C652.0625,353.0938 650.0625,355.1719 650.0625,357.8906 L650.0625,359.0156 C650.0625,361.5938 652.1719,363.4844 655.0625,363.4844 C656.2813,363.4844 657.4375,363.1875 658.1875,362.6406 C658.7656,362.2344 659.0938,361.7813 659.0938,361.3906 C659.0938,360.9375 658.7031,360.5469 658.2344,360.5469 C658.0156,360.5469 657.8125,360.625 657.625,360.8125 C657.1719,361.2969 657.1719,361.2969 656.9844,361.3906 C656.5625,361.6563 655.875,361.7813 655.1094,361.7813 C653.0625,361.7813 651.7656,360.6875 651.7656,358.9844 L651.7656,357.8906 C651.7656,356.1094 653.0156,354.7969 654.75,354.7969 C655.3281,354.7969 655.9375,354.9531 656.4063,355.2031 C656.8906,355.4844 657.0625,355.7031 657.1563,356.1094 C657.2188,356.5156 657.25,356.6406 657.3906,356.7656 C657.5313,356.9063 657.7656,357.0156 657.9844,357.0156 C658.25,357.0156 658.5156,356.875 658.6875,356.6563 C658.7969,356.5 658.8281,356.3125 658.8281,355.8906 L658.8281,354.4688 C658.8281,354.0313 658.8125,353.9063 658.7188,353.75 C658.5625,353.4844 658.2813,353.3438 657.9844,353.3438 C657.6875,353.3438 657.4844,353.4375 657.2656,353.75 L657.0938,353.6719 Z " fill="#000000"/><text fill="#000000" font-family="sans-serif" font-size="14" lengthAdjust="spacing" textLength="146" x="675.25" y="362.8467">Callback::Message_t</text><line style="stroke:#181818;stroke-width:0.5;" x1="595" x2="869" y1="374" y2="374"/><ellipse cx="605" cy="387.6484" fill="none" rx="3" ry="3" style="stroke:#038048;stroke-width:1.0;"/><text fill="#000000" font-family="sans-serif" font-size="14" lengthAdjust="spacing" textLength="250" x="614" y="390.9951">mTime : Receipt::ChronotTime_tD</text><ellipse cx="605" cy="403.9453" fill="none" rx="3" ry="3" style="stroke:#038048;stroke-width:1.0;"/><text fill="#000000" font-family="sans-serif" font-size="14" lengthAdjust="spacing" textLength="147" x="614" y="407.292">mResult : std::string</text><line style="stroke:#181818;stroke-width:0.5;" x1="595" x2="869" y1="414.5938" y2="414.5938"/></g><!--class scoped_logger--><g id="elem_scoped_logger"><rect codeLine="94" fill="#F1F1F1" height="113.1875" id="scoped_logger" rx="2.5" ry="2.5" style="stroke:#181818;stroke-width:0.5;" width="618" x="7" y="563.5"/><ellipse cx="259.25" cy="579.5" fill="#ADD1B2" rx="11" ry="11" style="stroke:#181818;stroke-width:1.0;"/><path d="M261.5938,575.1719 C260.6563,574.7344 260.0625,574.5938 259.1875,574.5938 C256.5625,574.5938 254.5625,576.6719 254.5625,579.3906 L254.5625,580.5156 C254.5625,583.0938 256.6719,584.9844 259.5625,584.9844 C260.7813,584.9844 261.9375,584.6875 262.6875,584.1406 C263.2656,583.7344 263.5938,583.2813 263.5938,582.8906 C263.5938,582.4375 263.2031,582.0469 262.7344,582.0469 C262.5156,582.0469 262.3125,582.125 262.125,582.3125 C261.6719,582.7969 261.6719,582.7969 261.4844,582.8906 C261.0625,583.1563 260.375,583.2813 259.6094,583.2813 C257.5625,583.2813 256.2656,582.1875 256.2656,580.4844 L256.2656,579.3906 C256.2656,577.6094 257.5156,576.2969 259.25,576.2969 C259.8281,576.2969 260.4375,576.4531 260.9063,576.7031 C261.3906,576.9844 261.5625,577.2031 261.6563,577.6094 C261.7188,578.0156 261.75,578.1406 261.8906,578.2656 C262.0313,578.4063 262.2656,578.5156 262.4844,578.5156 C262.75,578.5156 263.0156,578.375 263.1875,578.1563 C263.2969,578 263.3281,577.8125 263.3281,577.3906 L263.3281,575.9688 C263.3281,575.5313 263.3125,575.4063 263.2188,575.25 C263.0625,574.9844 262.7813,574.8438 262.4844,574.8438 C262.1875,574.8438 261.9844,574.9375 261.7656,575.25 L261.5938,575.1719 Z " fill="#000000"/><text fill="#000000" font-family="sans-serif" font-size="14" lengthAdjust="spacing" textLength="105" x="279.75" y="584.3467">scoped_logger</text><line style="stroke:#181818;stroke-width:0.5;" x1="8" x2="624" y1="595.5" y2="595.5"/><rect fill="none" height="6" style="stroke:#C82930;stroke-width:1.0;" width="6" x="15" y="606.1484"/><text fill="#000000" font-family="sans-serif" font-size="14" lengthAdjust="spacing" textLength="160" x="27" y="612.4951">_ss : std::stringstream</text><line style="stroke:#181818;stroke-width:0.5;" x1="8" x2="624" y1="619.7969" y2="619.7969"/><ellipse cx="18" cy="633.4453" fill="#84BE84" rx="3" ry="3" style="stroke:#038048;stroke-width:1.0;"/><text fill="#000000" font-family="sans-serif" font-size="14" lengthAdjust="spacing" textLength="592" x="27" y="636.792">scoped_logger(const std::string&amp; className, const char* funcName, unsigned line)</text><ellipse cx="18" cy="649.7422" fill="#84BE84" rx="3" ry="3" style="stroke:#038048;stroke-width:1.0;"/><text fill="#000000" font-family="sans-serif" font-size="14" lengthAdjust="spacing" textLength="126" x="27" y="653.0889">~scoped_logger()</text><ellipse cx="18" cy="666.0391" fill="#84BE84" rx="3" ry="3" style="stroke:#038048;stroke-width:1.0;"/><text fill="#000000" font-family="sans-serif" font-size="14" lengthAdjust="spacing" textLength="211" x="27" y="669.3857">stream() : std::stringstream&amp;</text></g><!--reverse link Agent to Callback--><g id="link_Agent_Callback"><path codeLine="134" d="M1190.37,468.504 C1171.06,487.453 1150.5,507.632 1130.91,526.853 " fill="none" id="Agent-backto-Callback" style="stroke:#181818;stroke-width:1.0;"/><polygon fill="#181818" points="1199.74,459.31,1192.6554,460.6549,1191.172,467.7118,1198.2566,466.3669,1199.74,459.31" style="stroke:#181818;stroke-width:1.0;"/></g><!--reverse link Agent to Server--><g id="link_Agent_Server"><path codeLine="137" d="M1402.09,466.72 C1427.43,483.576 1454.33,501.467 1480.44,518.836 " fill="none" id="Agent-backto-Server" style="stroke:#181818;stroke-width:1.0;"/><polygon fill="#181818" points="1390.96,459.31,1393.7404,465.9635,1400.9515,465.9561,1398.1711,459.3025,1390.96,459.31" style="stroke:#181818;stroke-width:1.0;"/></g><!--reverse link AgentTest to Agent--><g id="link_AgentTest_Agent"><path codeLine="140" d="M1307.65,259.201 C1303.74,274.775 1299.74,290.763 1295.96,305.831 " fill="none" id="AgentTest-backto-Agent" style="stroke:#181818;stroke-width:1.0;"/><polygon fill="#181818" points="1310.89,246.244,1305.5519,251.0922,1307.974,257.8843,1313.3121,253.0362,1310.89,246.244" style="stroke:#181818;stroke-width:1.0;"/><text fill="#000000" font-family="sans-serif" font-size="13" lengthAdjust="spacing" textLength="8" x="1300.7427" y="266.2171">2</text></g><!--reverse link AgentTest to Callback--><g id="link_AgentTest_Callback"><path codeLine="143" d="M1147.53,189.942 C1076.5,209.171 1002.068,243.775 959,306 C913.743,371.389 942.692,460.54 977.449,526.974 " fill="none" id="AgentTest-backto-Callback" style="stroke:#181818;stroke-width:1.0;"/><polygon fill="#181818" points="1160.28,186.642,1153.4692,184.2728,1148.6627,189.6485,1155.4735,192.0177,1160.28,186.642" style="stroke:#181818;stroke-width:1.0;"/></g><!--reverse link AgentTest to Server--><g id="link_AgentTest_Server"><path codeLine="146" d="M1442.25,253.392 C1466.47,269.01 1492.74,283.596 1519,294 C1550.79,306.594 1571.33,281.316 1595,306 C1648.09,361.375 1653.82,450.02 1648.14,518.86 " fill="none" id="AgentTest-backto-Server" style="stroke:#181818;stroke-width:1.0;"/><polygon fill="#181818" points="1431.28,246.155,1434.0928,252.7949,1441.3038,252.7522,1438.491,246.1123,1431.28,246.155" style="stroke:#181818;stroke-width:1.0;"/></g><!--reverse link Callback to Receipt--><g id="link_Callback_Receipt"><path codeLine="149" d="M1356.97,576.56 C1400.08,588.282 1370,663.457 1343,713 C1321.95,751.62 1289.9,784.017 1254.34,810.732 " fill="none" id="Callback-backto-Receipt" style="stroke:#181818;stroke-width:1.0;"/><polygon fill="#181818" points="1344,575,1349.4777,579.6898,1355.9136,576.4373,1350.4359,571.7474,1344,575" style="stroke:#181818;stroke-width:1.0;"/></g><!--reverse link ServerTest to Server--><g id="link_ServerTest_Server"><path codeLine="152" d="M1652.9,234.808 C1654.58,257.464 1656.17,282.793 1657,306 C1659.42,373.957 1662.47,391.22 1657,459 C1655.44,478.355 1652.83,498.9 1649.85,518.588 " fill="none" id="ServerTest-backto-Server" style="stroke:#181818;stroke-width:1.0;"/><polygon fill="#181818" points="1651.9,221.814,1648.3694,228.1017,1652.8155,233.779,1656.3461,227.4913,1651.9,221.814" style="stroke:#181818;stroke-width:1.0;"/></g><!--reverse link Agent to Agent--><g id="link_Agent_Agent"><path codeLine="161" d="M1264.41,290.566 C1262.41,242.025 1266.73,198 1277.5,198 C1294.76,198 1295.47,352.501 1280.06,419.414 " fill="none" id="Agent-backto-Agent" style="stroke:#181818;stroke-width:1.0;"/><ellipse cx="1264.8044" cy="297.7439" fill="#FFFFFF" rx="8" ry="8" style="stroke:#181818;stroke-width:1.0;"/><line style="stroke:#181818;stroke-width:1.0;" x1="1264.3688" x2="1265.24" y1="289.7557" y2="305.732"/><line style="stroke:#181818;stroke-width:1.0;" x1="1272.7926" x2="1256.8163" y1="297.3083" y2="298.1794"/></g><!--reverse link Callback to Callback--><g id="link_Callback_Callback"><path codeLine="164" d="M1049.72,511.93 C1051.53,457.588 1047.29,409 1037,409 C1020.18,409 1019.53,497.339 1035.03,566.649 " fill="none" id="Callback-backto-Callback" style="stroke:#181818;stroke-width:1.0;"/><ellipse cx="1049.4144" cy="518.9964" fill="#FFFFFF" rx="8" ry="8" style="stroke:#181818;stroke-width:1.0;"/><line style="stroke:#181818;stroke-width:1.0;" x1="1049.7588" x2="1049.07" y1="511.0038" y2="526.989"/><line style="stroke:#181818;stroke-width:1.0;" x1="1057.407" x2="1041.4218" y1="519.3408" y2="518.652"/></g><!--reverse link Callback to Callback--><g id="link_Callback_Callback"><path codeLine="167" d="M1049.72,511.93 C1051.53,457.588 1047.29,409 1037,409 C1020.15,409 1019.52,610.811 1035.12,688.58 " fill="none" id="Callback-backto-Callback-1" style="stroke:#181818;stroke-width:1.0;"/><ellipse cx="1049.4144" cy="518.9964" fill="#FFFFFF" rx="8" ry="8" style="stroke:#181818;stroke-width:1.0;"/><line style="stroke:#181818;stroke-width:1.0;" x1="1049.7588" x2="1049.07" y1="511.0038" y2="526.989"/><line style="stroke:#181818;stroke-width:1.0;" x1="1057.407" x2="1041.4218" y1="519.3408" y2="518.652"/></g><!--reverse link Receipt to Receipt--><g id="link_Receipt_Receipt"><path codeLine="170" d="M1049.84,765.593 C1051.32,695.498 1047.04,634 1037,634 C1020.01,634 1019.52,730.111 1035.51,821.263 " fill="none" id="Receipt-backto-Receipt" style="stroke:#181818;stroke-width:1.0;"/><ellipse cx="1049.6533" cy="772.6648" fill="#FFFFFF" rx="8" ry="8" style="stroke:#181818;stroke-width:1.0;"/><line style="stroke:#181818;stroke-width:1.0;" x1="1049.8665" x2="1049.44" y1="764.6677" y2="780.662"/><line style="stroke:#181818;stroke-width:1.0;" x1="1057.6504" x2="1041.6561" y1="772.8781" y2="772.4516"/></g><!--reverse link Receipt to Receipt--><g id="link_Receipt_Receipt"><path codeLine="173" d="M1049.84,765.593 C1051.32,695.498 1047.04,634 1037,634 C1020.01,634 1019.52,745.187 1035.51,837.223 " fill="none" id="Receipt-backto-Receipt-1" style="stroke:#181818;stroke-width:1.0;"/><ellipse cx="1049.6533" cy="772.6648" fill="#FFFFFF" rx="8" ry="8" style="stroke:#181818;stroke-width:1.0;"/><line style="stroke:#181818;stroke-width:1.0;" x1="1049.8665" x2="1049.44" y1="764.6677" y2="780.662"/><line style="stroke:#181818;stroke-width:1.0;" x1="1057.6504" x2="1041.6561" y1="772.8781" y2="772.4516"/></g><!--reverse link Server to Server--><g id="link_Server_Server"><path codeLine="176" d="M1618.2,503.723 C1616.78,449.004 1621.18,401 1631.5,401 C1648.83,401 1649.48,487.226 1633.88,558.796 " fill="none" id="Server-backto-Server" style="stroke:#181818;stroke-width:1.0;"/><ellipse cx="1618.4472" cy="510.916" fill="#FFFFFF" rx="8" ry="8" style="stroke:#181818;stroke-width:1.0;"/><line style="stroke:#181818;stroke-width:1.0;" x1="1618.1645" x2="1618.73" y1="502.921" y2="518.911"/><line style="stroke:#181818;stroke-width:1.0;" x1="1626.4422" x2="1610.4522" y1="510.6332" y2="511.1988"/></g><!--SRC=[nLPjRzis4Fvi_GgY0nAvVWdGOby4eu2N9e3HnYbYjry5Xc9bBXAfaLGQ8qX_-uvlajYe6JeCME1OrDrpnxldZaUVdQBhspyfqGgTdYK9gR1IQ5rIhj5ZCbdOLKe4LnhjgBodyWGf-voZSrnLjvZSPTdkW2KjFcc9Y9TDaydikpE6vQ8EM9IDcG6u47kixj8RIYXhT9PTYOAY6hxco2YGXgyvKhh8CgKbu-K9abIrbPw2Is-57lzggJm-WRj7fR5cv0aHIR6c_oO3y3i8S54xOv16lfAd9B3MvGZ4pS9BQfc8taH39TP2hbQfpKT0GXJN9yWivjxzI6WdYDoQgC08PHaAPYQsAweKBgbosYohSRFwG8-vdYElolKxsBga-f995IhgUJDKsWLmVMmeql0r3Qv4evdWk5f5ZhvXzXzv8XN5CZMWUy4A472XsTTZQgg-AMpTDyN0NI0eQeNQUUoyz4NfMWCy-tNQzTRKKNB1YpshgGtY_205H63USqYdxoZ0xJIM-X-HK0tZFqFcOHi7Mh4rfN4BvykbPntvJAEjBXueQGrTneb5CQwVHGFUdkiMjSy75De4rmZGhonVnCOCl1sLfdLEAa7ktlaONMg_OkG3pr0BsBTlSWs1gPXENrFLXUl9KFOnKYz_oaovtD8Te7uzmYUC5y4BPkZwWYN3jnKDFKU28h_t6bkWLjE7xgoO5vlE0SwJdG5Uqt86fEQDbeu8RG4cTTdoA3t3NYmGJHfbHtbRkxcQPNQWGOP_62QlQFuMSlZ4p3yluVNtXzwY7mFs083Hzdg_kToSh_URwsqokRdOVVwux_7n_0JuMXqvyLk1-n6afnEmb-lDnsHo_Q47ETg7c0rdKEQRbYSJspFc8PgHAGWXX6DkgrdxxkhsZSxFUuEuiGCziE_Ezi2p8Z0vYxmIPUax99Aa8tF16cvntKqD0iFqDVhQSkAaBLUivBH05UDs77oFVPg6ovMAOtA3rvRPBDBfcDhT31nsKGqc59tNXOkw5-sfqe0tmidWuZLYAvlyrbrZojRHtSiPSjBGJeDRAZBPYb2BNxCRtDNUOFJAZcowoz5Rk7SBsb7zUN0O8ZkhC_dkMgRfJq1xk23UYszy50Sa1_BSdgFi_O_XmSSq0loTdQ8DFr39DEPGVKahR2QJEh36_VXoc7LPIbfQrGXcwMhvUh50or2M91Rxv9B4jjpITzcoxwrNRruvf1Mz0FnnbnTntRRBiH5W8VxiF_Cqg5piobEo1GsSKJ7ueUeJddLfkB4wtDufHu9v2MJ6hD67tmspGTnkglvSw-yZqFj-c_N91EtV]--></g></svg>