<?xml version="1.0" encoding="us-ascii" standalone="no"?><svg xmlns="http://www.w3.org/2000/svg" xmlns:xlink="http://www.w3.org/1999/xlink" contentStyleType="text/css" height="1100px" preserveAspectRatio="none" style="width:1824px;height:1100px;background:#FFFFFF;" version="1.1" viewBox="0 0 1824 1100" width="1824px" zoomAndPan="magnify"><defs/><g><!--cluster Cmder--><g id="cluster_Cmder"><path d="M1142.5,6 L1194.5,6 A3.75,3.75 0 0 1 1197,8.5 L1204,28.2969 L1814.5,28.2969 A2.5,2.5 0 0 1 1817,30.7969 L1817,283.5 A2.5,2.5 0 0 1 1814.5,286 L1142.5,286 A2.5,2.5 0 0 1 1140,283.5 L1140,8.5 A2.5,2.5 0 0 1 1142.5,6 " fill="none" style="stroke:#000000;stroke-width:1.5;"/><line style="stroke:#000000;stroke-width:1.5;" x1="1140" x2="1204" y1="28.2969" y2="28.2969"/><text fill="#000000" font-family="sans-serif" font-size="14" font-weight="bold" lengthAdjust="spacing" textLength="51" x="1144" y="20.9951">Cmder</text></g><!--cluster Testing--><g id="cluster_Testing"><path d="M1166.5,49 L1229.5,49 A3.75,3.75 0 0 1 1232,51.5 L1239,71.2969 L1790.5,71.2969 A2.5,2.5 0 0 1 1793,73.7969 L1793,259.5 A2.5,2.5 0 0 1 1790.5,262 L1166.5,262 A2.5,2.5 0 0 1 1164,259.5 L1164,51.5 A2.5,2.5 0 0 1 1166.5,49 " fill="none" style="stroke:#000000;stroke-width:1.5;"/><line style="stroke:#000000;stroke-width:1.5;" x1="1164" x2="1239" y1="71.2969" y2="71.2969"/><text fill="#000000" font-family="sans-serif" font-size="14" font-weight="bold" lengthAdjust="spacing" textLength="62" x="1168" y="63.9951">Testing</text></g><!--class AgentTest--><g id="elem_AgentTest"><rect codeLine="108" fill="#F1F1F1" height="162.0781" id="AgentTest" rx="2.5" ry="2.5" style="stroke:#181818;stroke-width:0.5;" width="341" x="1180.5" y="84"/><ellipse cx="1308.75" cy="100" fill="#ADD1B2" rx="11" ry="11" style="stroke:#181818;stroke-width:1.0;"/><path d="M1311.0938,95.6719 C1310.1563,95.2344 1309.5625,95.0938 1308.6875,95.0938 C1306.0625,95.0938 1304.0625,97.1719 1304.0625,99.8906 L1304.0625,101.0156 C1304.0625,103.5938 1306.1719,105.4844 1309.0625,105.4844 C1310.2813,105.4844 1311.4375,105.1875 1312.1875,104.6406 C1312.7656,104.2344 1313.0938,103.7813 1313.0938,103.3906 C1313.0938,102.9375 1312.7031,102.5469 1312.2344,102.5469 C1312.0156,102.5469 1311.8125,102.625 1311.625,102.8125 C1311.1719,103.2969 1311.1719,103.2969 1310.9844,103.3906 C1310.5625,103.6563 1309.875,103.7813 1309.1094,103.7813 C1307.0625,103.7813 1305.7656,102.6875 1305.7656,100.9844 L1305.7656,99.8906 C1305.7656,98.1094 1307.0156,96.7969 1308.75,96.7969 C1309.3281,96.7969 1309.9375,96.9531 1310.4063,97.2031 C1310.8906,97.4844 1311.0625,97.7031 1311.1563,98.1094 C1311.2188,98.5156 1311.25,98.6406 1311.3906,98.7656 C1311.5313,98.9063 1311.7656,99.0156 1311.9844,99.0156 C1312.25,99.0156 1312.5156,98.875 1312.6875,98.6563 C1312.7969,98.5 1312.8281,98.3125 1312.8281,97.8906 L1312.8281,96.4688 C1312.8281,96.0313 1312.8125,95.9063 1312.7188,95.75 C1312.5625,95.4844 1312.2813,95.3438 1311.9844,95.3438 C1311.6875,95.3438 1311.4844,95.4375 1311.2656,95.75 L1311.0938,95.6719 Z " fill="#000000"/><text fill="#000000" font-family="sans-serif" font-size="14" lengthAdjust="spacing" textLength="76" x="1329.25" y="104.8467">AgentTest</text><line style="stroke:#181818;stroke-width:0.5;" x1="1181.5" x2="1520.5" y1="116" y2="116"/><polygon fill="none" points="1191.5,124.6484,1195.5,128.6484,1191.5,132.6484,1187.5,128.6484" style="stroke:#B38D22;stroke-width:1.0;"/><text fill="#000000" font-family="sans-serif" font-size="14" lengthAdjust="spacing" text-decoration="underline" textLength="277" x="1200.5" y="132.9951">sAsyncAgent : static Agent::SharedPtr</text><polygon fill="none" points="1191.5,140.9453,1195.5,144.9453,1191.5,148.9453,1187.5,144.9453" style="stroke:#B38D22;stroke-width:1.0;"/><text fill="#000000" font-family="sans-serif" font-size="14" lengthAdjust="spacing" text-decoration="underline" textLength="315" x="1200.5" y="149.292">sNoCallbackAgent : static Agent::SharedPtr</text><polygon fill="none" points="1191.5,157.2422,1195.5,161.2422,1191.5,165.2422,1187.5,161.2422" style="stroke:#B38D22;stroke-width:1.0;"/><text fill="#000000" font-family="sans-serif" font-size="14" lengthAdjust="spacing" text-decoration="underline" textLength="269" x="1200.5" y="165.5889">sCallback : static Callback::SharedPtr</text><polygon fill="none" points="1191.5,173.5391,1195.5,177.5391,1191.5,181.5391,1187.5,177.5391" style="stroke:#B38D22;stroke-width:1.0;"/><text fill="#000000" font-family="sans-serif" font-size="14" lengthAdjust="spacing" text-decoration="underline" textLength="159" x="1200.5" y="181.8857">sServer : static Server</text><line style="stroke:#181818;stroke-width:0.5;" x1="1181.5" x2="1520.5" y1="189.1875" y2="189.1875"/><polygon fill="#FFFF44" points="1191.5,197.8359,1195.5,201.8359,1191.5,205.8359,1187.5,201.8359" style="stroke:#B38D22;stroke-width:1.0;"/><text fill="#000000" font-family="sans-serif" font-size="14" lengthAdjust="spacing" textLength="97" x="1200.5" y="206.1826">SetUp() : void</text><polygon fill="#FFFF44" points="1191.5,214.1328,1195.5,218.1328,1191.5,222.1328,1187.5,218.1328" style="stroke:#B38D22;stroke-width:1.0;"/><text fill="#000000" font-family="sans-serif" font-size="14" lengthAdjust="spacing" text-decoration="underline" textLength="166" x="1200.5" y="222.4795">SetUpTestSuite() : void</text><polygon fill="#FFFF44" points="1191.5,230.4297,1195.5,234.4297,1191.5,238.4297,1187.5,234.4297" style="stroke:#B38D22;stroke-width:1.0;"/><text fill="#000000" font-family="sans-serif" font-size="14" lengthAdjust="spacing" text-decoration="underline" textLength="194" x="1200.5" y="238.7764">TearDownTestSuite() : void</text></g><!--class ServerTest--><g id="elem_ServerTest"><rect codeLine="118" fill="#F1F1F1" height="113.1875" id="ServerTest" rx="2.5" ry="2.5" style="stroke:#181818;stroke-width:0.5;" width="220" x="1557" y="108.5"/><ellipse cx="1623.25" cy="124.5" fill="#ADD1B2" rx="11" ry="11" style="stroke:#181818;stroke-width:1.0;"/><path d="M1625.5938,120.1719 C1624.6563,119.7344 1624.0625,119.5938 1623.1875,119.5938 C1620.5625,119.5938 1618.5625,121.6719 1618.5625,124.3906 L1618.5625,125.5156 C1618.5625,128.0938 1620.6719,129.9844 1623.5625,129.9844 C1624.7813,129.9844 1625.9375,129.6875 1626.6875,129.1406 C1627.2656,128.7344 1627.5938,128.2813 1627.5938,127.8906 C1627.5938,127.4375 1627.2031,127.0469 1626.7344,127.0469 C1626.5156,127.0469 1626.3125,127.125 1626.125,127.3125 C1625.6719,127.7969 1625.6719,127.7969 1625.4844,127.8906 C1625.0625,128.1563 1624.375,128.2813 1623.6094,128.2813 C1621.5625,128.2813 1620.2656,127.1875 1620.2656,125.4844 L1620.2656,124.3906 C1620.2656,122.6094 1621.5156,121.2969 1623.25,121.2969 C1623.8281,121.2969 1624.4375,121.4531 1624.9063,121.7031 C1625.3906,121.9844 1625.5625,122.2031 1625.6563,122.6094 C1625.7188,123.0156 1625.75,123.1406 1625.8906,123.2656 C1626.0313,123.4063 1626.2656,123.5156 1626.4844,123.5156 C1626.75,123.5156 1627.0156,123.375 1627.1875,123.1563 C1627.2969,123 1627.3281,122.8125 1627.3281,122.3906 L1627.3281,120.9688 C1627.3281,120.5313 1627.3125,120.4063 1627.2188,120.25 C1627.0625,119.9844 1626.7813,119.8438 1626.4844,119.8438 C1626.1875,119.8438 1625.9844,119.9375 1625.7656,120.25 L1625.5938,120.1719 Z " fill="#000000"/><text fill="#000000" font-family="sans-serif" font-size="14" lengthAdjust="spacing" textLength="79" x="1643.75" y="129.3467">ServerTest</text><line style="stroke:#181818;stroke-width:0.5;" x1="1558" x2="1776" y1="140.5" y2="140.5"/><polygon fill="none" points="1568,149.1484,1572,153.1484,1568,157.1484,1564,153.1484" style="stroke:#B38D22;stroke-width:1.0;"/><text fill="#000000" font-family="sans-serif" font-size="14" lengthAdjust="spacing" text-decoration="underline" textLength="159" x="1577" y="157.4951">sServer : static Server</text><line style="stroke:#181818;stroke-width:0.5;" x1="1558" x2="1776" y1="164.7969" y2="164.7969"/><polygon fill="#FFFF44" points="1568,173.4453,1572,177.4453,1568,181.4453,1564,177.4453" style="stroke:#B38D22;stroke-width:1.0;"/><text fill="#000000" font-family="sans-serif" font-size="14" lengthAdjust="spacing" textLength="97" x="1577" y="181.792">SetUp() : void</text><polygon fill="#FFFF44" points="1568,189.7422,1572,193.7422,1568,197.7422,1564,193.7422" style="stroke:#B38D22;stroke-width:1.0;"/><text fill="#000000" font-family="sans-serif" font-size="14" lengthAdjust="spacing" text-decoration="underline" textLength="166" x="1577" y="198.0889">SetUpTestSuite() : void</text><polygon fill="#FFFF44" points="1568,206.0391,1572,210.0391,1568,214.0391,1564,210.0391" style="stroke:#B38D22;stroke-width:1.0;"/><text fill="#000000" font-family="sans-serif" font-size="14" lengthAdjust="spacing" text-decoration="underline" textLength="194" x="1577" y="214.3857">TearDownTestSuite() : void</text></g><!--class Agent--><g id="elem_Agent"><rect codeLine="3" fill="#F1F1F1" height="145.7813" id="Agent" rx="2.5" ry="2.5" style="stroke:#181818;stroke-width:0.5;" width="585" x="1004.5" y="310"/><ellipse cx="1270.75" cy="326" fill="#ADD1B2" rx="11" ry="11" style="stroke:#181818;stroke-width:1.0;"/><path d="M1273.0938,321.6719 C1272.1563,321.2344 1271.5625,321.0938 1270.6875,321.0938 C1268.0625,321.0938 1266.0625,323.1719 1266.0625,325.8906 L1266.0625,327.0156 C1266.0625,329.5938 1268.1719,331.4844 1271.0625,331.4844 C1272.2813,331.4844 1273.4375,331.1875 1274.1875,330.6406 C1274.7656,330.2344 1275.0938,329.7813 1275.0938,329.3906 C1275.0938,328.9375 1274.7031,328.5469 1274.2344,328.5469 C1274.0156,328.5469 1273.8125,328.625 1273.625,328.8125 C1273.1719,329.2969 1273.1719,329.2969 1272.9844,329.3906 C1272.5625,329.6563 1271.875,329.7813 1271.1094,329.7813 C1269.0625,329.7813 1267.7656,328.6875 1267.7656,326.9844 L1267.7656,325.8906 C1267.7656,324.1094 1269.0156,322.7969 1270.75,322.7969 C1271.3281,322.7969 1271.9375,322.9531 1272.4063,323.2031 C1272.8906,323.4844 1273.0625,323.7031 1273.1563,324.1094 C1273.2188,324.5156 1273.25,324.6406 1273.3906,324.7656 C1273.5313,324.9063 1273.7656,325.0156 1273.9844,325.0156 C1274.25,325.0156 1274.5156,324.875 1274.6875,324.6563 C1274.7969,324.5 1274.8281,324.3125 1274.8281,323.8906 L1274.8281,322.4688 C1274.8281,322.0313 1274.8125,321.9063 1274.7188,321.75 C1274.5625,321.4844 1274.2813,321.3438 1273.9844,321.3438 C1273.6875,321.3438 1273.4844,321.4375 1273.2656,321.75 L1273.0938,321.6719 Z " fill="#000000"/><text fill="#000000" font-family="sans-serif" font-size="14" lengthAdjust="spacing" textLength="44" x="1291.25" y="330.8467">Agent</text><line style="stroke:#181818;stroke-width:0.5;" x1="1005.5" x2="1588.5" y1="342" y2="342"/><rect fill="none" height="6" style="stroke:#C82930;stroke-width:1.0;" width="6" x="1012.5" y="352.6484"/><text fill="#000000" font-family="sans-serif" font-size="14" lengthAdjust="spacing" textLength="231" x="1024.5" y="358.9951">mCallback : Callback::SharedPtr</text><rect fill="none" height="6" style="stroke:#C82930;stroke-width:1.0;" width="6" x="1012.5" y="368.9453"/><text fill="#000000" font-family="sans-serif" font-size="14" lengthAdjust="spacing" textLength="176" x="1024.5" y="375.292">mServer : const Server&amp;</text><line style="stroke:#181818;stroke-width:0.5;" x1="1005.5" x2="1588.5" y1="382.5938" y2="382.5938"/><rect fill="#F24D5C" height="6" style="stroke:#C82930;stroke-width:1.0;" width="6" x="1012.5" y="393.2422"/><text fill="#000000" font-family="sans-serif" font-size="14" lengthAdjust="spacing" textLength="419" x="1024.5" y="399.5889">Agent(const Server&amp; server, Callback::SharedPtr callback)</text><ellipse cx="1015.5" cy="412.5391" fill="#84BE84" rx="3" ry="3" style="stroke:#038048;stroke-width:1.0;"/><text fill="#000000" font-family="sans-serif" font-size="14" lengthAdjust="spacing" textLength="65" x="1024.5" y="415.8857">~Agent()</text><ellipse cx="1015.5" cy="428.8359" fill="#84BE84" rx="3" ry="3" style="stroke:#038048;stroke-width:1.0;"/><text fill="#000000" font-family="sans-serif" font-size="14" lengthAdjust="spacing" textLength="559" x="1024.5" y="432.1826">doTask(Receipt::Mode mode, Task task, std::string&amp; result) : Receipt {query}</text><ellipse cx="1015.5" cy="445.1328" fill="#84BE84" rx="3" ry="3" style="stroke:#038048;stroke-width:1.0;"/><text fill="#000000" font-family="sans-serif" font-size="14" lengthAdjust="spacing" text-decoration="underline" textLength="463" x="1024.5" y="448.4795">create(Server&amp; server, Callback::SharedPtr callback) : SharedPtr</text></g><!--class Callback--><g id="elem_Callback"><rect codeLine="13" fill="#F1F1F1" height="194.6719" id="Callback" rx="2.5" ry="2.5" style="stroke:#181818;stroke-width:0.5;" width="612" x="740" y="547.5"/><ellipse cx="1011.25" cy="563.5" fill="#ADD1B2" rx="11" ry="11" style="stroke:#181818;stroke-width:1.0;"/><path d="M1013.5938,559.1719 C1012.6563,558.7344 1012.0625,558.5938 1011.1875,558.5938 C1008.5625,558.5938 1006.5625,560.6719 1006.5625,563.3906 L1006.5625,564.5156 C1006.5625,567.0938 1008.6719,568.9844 1011.5625,568.9844 C1012.7813,568.9844 1013.9375,568.6875 1014.6875,568.1406 C1015.2656,567.7344 1015.5938,567.2813 1015.5938,566.8906 C1015.5938,566.4375 1015.2031,566.0469 1014.7344,566.0469 C1014.5156,566.0469 1014.3125,566.125 1014.125,566.3125 C1013.6719,566.7969 1013.6719,566.7969 1013.4844,566.8906 C1013.0625,567.1563 1012.375,567.2813 1011.6094,567.2813 C1009.5625,567.2813 1008.2656,566.1875 1008.2656,564.4844 L1008.2656,563.3906 C1008.2656,561.6094 1009.5156,560.2969 1011.25,560.2969 C1011.8281,560.2969 1012.4375,560.4531 1012.9063,560.7031 C1013.3906,560.9844 1013.5625,561.2031 1013.6563,561.6094 C1013.7188,562.0156 1013.75,562.1406 1013.8906,562.2656 C1014.0313,562.4063 1014.2656,562.5156 1014.4844,562.5156 C1014.75,562.5156 1015.0156,562.375 1015.1875,562.1563 C1015.2969,562 1015.3281,561.8125 1015.3281,561.3906 L1015.3281,559.9688 C1015.3281,559.5313 1015.3125,559.4063 1015.2188,559.25 C1015.0625,558.9844 1014.7813,558.8438 1014.4844,558.8438 C1014.1875,558.8438 1013.9844,558.9375 1013.7656,559.25 L1013.5938,559.1719 Z " fill="#000000"/><text fill="#000000" font-family="sans-serif" font-size="14" lengthAdjust="spacing" textLength="61" x="1031.75" y="568.3467">Callback</text><line style="stroke:#181818;stroke-width:0.5;" x1="741" x2="1351" y1="579.5" y2="579.5"/><rect fill="none" height="6" style="stroke:#C82930;stroke-width:1.0;" width="6" x="748" y="590.1484"/><text fill="#000000" font-family="sans-serif" font-size="14" lengthAdjust="spacing" textLength="306" x="760" y="596.4951">mMessages : std::map&lt;Key_t, Message_t&gt;</text><rect fill="none" height="6" style="stroke:#C82930;stroke-width:1.0;" width="6" x="748" y="606.4453"/><text fill="#000000" font-family="sans-serif" font-size="14" lengthAdjust="spacing" textLength="150" x="760" y="612.792">mMutex : std::mutex</text><line style="stroke:#181818;stroke-width:0.5;" x1="741" x2="1351" y1="620.0938" y2="620.0938"/><ellipse cx="751" cy="633.7422" fill="#84BE84" rx="3" ry="3" style="stroke:#038048;stroke-width:1.0;"/><text fill="#000000" font-family="sans-serif" font-size="14" lengthAdjust="spacing" textLength="71" x="760" y="637.0889">Callback()</text><ellipse cx="751" cy="650.0391" fill="#84BE84" rx="3" ry="3" style="stroke:#038048;stroke-width:1.0;"/><text fill="#000000" font-family="sans-serif" font-size="14" lengthAdjust="spacing" textLength="82" x="760" y="653.3857">~Callback()</text><ellipse cx="751" cy="666.3359" fill="#84BE84" rx="3" ry="3" style="stroke:#038048;stroke-width:1.0;"/><text fill="#000000" font-family="sans-serif" font-size="14" lengthAdjust="spacing" textLength="586" x="760" y="669.6826">operator&lt;&lt;(std::ostream&amp; ostr, const Callback::SharedPtr&amp; cb) : std :: ostream&amp;</text><ellipse cx="751" cy="682.6328" fill="#84BE84" rx="3" ry="3" style="stroke:#038048;stroke-width:1.0;"/><text fill="#000000" font-family="sans-serif" font-size="14" lengthAdjust="spacing" textLength="521" x="760" y="685.9795">getFirst(const Receipt&amp; receipt, Type type) : std::optional&lt;Message_t&gt;</text><ellipse cx="751" cy="698.9297" fill="#84BE84" rx="3" ry="3" style="stroke:#038048;stroke-width:1.0;"/><text fill="#000000" font-family="sans-serif" font-size="14" lengthAdjust="spacing" textLength="526" x="760" y="702.2764">waitFirst(const Receipt&amp; receipt, Type type) : std::optional&lt;Message_t&gt;</text><ellipse cx="751" cy="715.2266" fill="#84BE84" rx="3" ry="3" style="stroke:#038048;stroke-width:1.0;"/><text fill="#000000" font-family="sans-serif" font-size="14" lengthAdjust="spacing" textLength="88" x="760" y="718.5732">clear() : void</text><ellipse cx="751" cy="731.5234" fill="#84BE84" rx="3" ry="3" style="stroke:#038048;stroke-width:1.0;"/><text fill="#000000" font-family="sans-serif" font-size="14" lengthAdjust="spacing" textLength="477" x="760" y="734.8701">notify(TaskId taskId, Type type, const std::string&amp; message) : void</text></g><!--class Receipt--><g id="elem_Receipt"><rect codeLine="26" fill="#F1F1F1" height="259.8594" id="Receipt" rx="2.5" ry="2.5" style="stroke:#181818;stroke-width:0.5;" width="418" x="837" y="834"/><ellipse cx="1013.25" cy="850" fill="#ADD1B2" rx="11" ry="11" style="stroke:#181818;stroke-width:1.0;"/><path d="M1015.5938,845.6719 C1014.6563,845.2344 1014.0625,845.0938 1013.1875,845.0938 C1010.5625,845.0938 1008.5625,847.1719 1008.5625,849.8906 L1008.5625,851.0156 C1008.5625,853.5938 1010.6719,855.4844 1013.5625,855.4844 C1014.7813,855.4844 1015.9375,855.1875 1016.6875,854.6406 C1017.2656,854.2344 1017.5938,853.7813 1017.5938,853.3906 C1017.5938,852.9375 1017.2031,852.5469 1016.7344,852.5469 C1016.5156,852.5469 1016.3125,852.625 1016.125,852.8125 C1015.6719,853.2969 1015.6719,853.2969 1015.4844,853.3906 C1015.0625,853.6563 1014.375,853.7813 1013.6094,853.7813 C1011.5625,853.7813 1010.2656,852.6875 1010.2656,850.9844 L1010.2656,849.8906 C1010.2656,848.1094 1011.5156,846.7969 1013.25,846.7969 C1013.8281,846.7969 1014.4375,846.9531 1014.9063,847.2031 C1015.3906,847.4844 1015.5625,847.7031 1015.6563,848.1094 C1015.7188,848.5156 1015.75,848.6406 1015.8906,848.7656 C1016.0313,848.9063 1016.2656,849.0156 1016.4844,849.0156 C1016.75,849.0156 1017.0156,848.875 1017.1875,848.6563 C1017.2969,848.5 1017.3281,848.3125 1017.3281,847.8906 L1017.3281,846.4688 C1017.3281,846.0313 1017.3125,845.9063 1017.2188,845.75 C1017.0625,845.4844 1016.7813,845.3438 1016.4844,845.3438 C1016.1875,845.3438 1015.9844,845.4375 1015.7656,845.75 L1015.5938,845.6719 Z " fill="#000000"/><text fill="#000000" font-family="sans-serif" font-size="14" lengthAdjust="spacing" textLength="57" x="1033.75" y="854.8467">Receipt</text><line style="stroke:#181818;stroke-width:0.5;" x1="838" x2="1254" y1="866" y2="866"/><rect fill="none" height="6" style="stroke:#C82930;stroke-width:1.0;" width="6" x="845" y="876.6484"/><text fill="#000000" font-family="sans-serif" font-size="14" lengthAdjust="spacing" textLength="105" x="857" y="882.9951">mMode : Mode</text><rect fill="none" height="6" style="stroke:#C82930;stroke-width:1.0;" width="6" x="845" y="892.9453"/><text fill="#000000" font-family="sans-serif" font-size="14" lengthAdjust="spacing" textLength="119" x="857" y="899.292">mStatus : Status</text><rect fill="none" height="6" style="stroke:#C82930;stroke-width:1.0;" width="6" x="845" y="909.2422"/><text fill="#000000" font-family="sans-serif" font-size="14" lengthAdjust="spacing" textLength="382" x="857" y="915.5889">mEndTime : time_point&lt;std::chrono::system_clock&gt;</text><rect fill="none" height="6" style="stroke:#C82930;stroke-width:1.0;" width="6" x="845" y="925.5391"/><text fill="#000000" font-family="sans-serif" font-size="14" lengthAdjust="spacing" textLength="392" x="857" y="931.8857">mStartTime : time_point&lt;std::chrono::system_clock&gt;</text><rect fill="none" height="6" style="stroke:#C82930;stroke-width:1.0;" width="6" x="845" y="941.8359"/><text fill="#000000" font-family="sans-serif" font-size="14" lengthAdjust="spacing" textLength="132" x="857" y="948.1826">mTaskId : uint32_t</text><line style="stroke:#181818;stroke-width:0.5;" x1="838" x2="1254" y1="955.4844" y2="955.4844"/><ellipse cx="848" cy="969.1328" fill="#84BE84" rx="3" ry="3" style="stroke:#038048;stroke-width:1.0;"/><text fill="#000000" font-family="sans-serif" font-size="14" lengthAdjust="spacing" textLength="151" x="857" y="972.4795">Receipt(Mode mode)</text><ellipse cx="848" cy="985.4297" fill="#84BE84" rx="3" ry="3" style="stroke:#038048;stroke-width:1.0;"/><text fill="#000000" font-family="sans-serif" font-size="14" lengthAdjust="spacing" textLength="293" x="857" y="988.7764">getEndTime() : ChronotTime_t&amp; {query}</text><ellipse cx="848" cy="1001.7266" fill="#84BE84" rx="3" ry="3" style="stroke:#038048;stroke-width:1.0;"/><text fill="#000000" font-family="sans-serif" font-size="14" lengthAdjust="spacing" textLength="303" x="857" y="1005.0732">getStartTime() : ChronotTime_t&amp; {query}</text><ellipse cx="848" cy="1018.0234" fill="#84BE84" rx="3" ry="3" style="stroke:#038048;stroke-width:1.0;"/><text fill="#000000" font-family="sans-serif" font-size="14" lengthAdjust="spacing" textLength="202" x="857" y="1021.3701">getTaskId() : TaskId {query}</text><ellipse cx="848" cy="1034.3203" fill="#84BE84" rx="3" ry="3" style="stroke:#038048;stroke-width:1.0;"/><text fill="#000000" font-family="sans-serif" font-size="14" lengthAdjust="spacing" textLength="240" x="857" y="1037.667">getExecutionMode() : int {query}</text><ellipse cx="848" cy="1050.6172" fill="#84BE84" rx="3" ry="3" style="stroke:#038048;stroke-width:1.0;"/><text fill="#000000" font-family="sans-serif" font-size="14" lengthAdjust="spacing" textLength="176" x="857" y="1053.9639">getStatus() : int {query}</text><ellipse cx="848" cy="1066.9141" fill="#84BE84" rx="3" ry="3" style="stroke:#038048;stroke-width:1.0;"/><text fill="#000000" font-family="sans-serif" font-size="14" lengthAdjust="spacing" textLength="139" x="857" y="1070.2607">setEndTime() : void</text><ellipse cx="848" cy="1083.2109" fill="#84BE84" rx="3" ry="3" style="stroke:#038048;stroke-width:1.0;"/><text fill="#000000" font-family="sans-serif" font-size="14" lengthAdjust="spacing" textLength="216" x="857" y="1086.5576">setStatus(Status status) : void</text></g><!--class Server--><g id="elem_Server"><rect codeLine="43" fill="#F1F1F1" height="243.5625" id="Server" rx="2.5" ry="2.5" style="stroke:#181818;stroke-width:0.5;" width="352" x="1439" y="523"/><ellipse cx="1587.25" cy="539" fill="#ADD1B2" rx="11" ry="11" style="stroke:#181818;stroke-width:1.0;"/><path d="M1589.5938,534.6719 C1588.6563,534.2344 1588.0625,534.0938 1587.1875,534.0938 C1584.5625,534.0938 1582.5625,536.1719 1582.5625,538.8906 L1582.5625,540.0156 C1582.5625,542.5938 1584.6719,544.4844 1587.5625,544.4844 C1588.7813,544.4844 1589.9375,544.1875 1590.6875,543.6406 C1591.2656,543.2344 1591.5938,542.7813 1591.5938,542.3906 C1591.5938,541.9375 1591.2031,541.5469 1590.7344,541.5469 C1590.5156,541.5469 1590.3125,541.625 1590.125,541.8125 C1589.6719,542.2969 1589.6719,542.2969 1589.4844,542.3906 C1589.0625,542.6563 1588.375,542.7813 1587.6094,542.7813 C1585.5625,542.7813 1584.2656,541.6875 1584.2656,539.9844 L1584.2656,538.8906 C1584.2656,537.1094 1585.5156,535.7969 1587.25,535.7969 C1587.8281,535.7969 1588.4375,535.9531 1588.9063,536.2031 C1589.3906,536.4844 1589.5625,536.7031 1589.6563,537.1094 C1589.7188,537.5156 1589.75,537.6406 1589.8906,537.7656 C1590.0313,537.9063 1590.2656,538.0156 1590.4844,538.0156 C1590.75,538.0156 1591.0156,537.875 1591.1875,537.6563 C1591.2969,537.5 1591.3281,537.3125 1591.3281,536.8906 L1591.3281,535.4688 C1591.3281,535.0313 1591.3125,534.9063 1591.2188,534.75 C1591.0625,534.4844 1590.7813,534.3438 1590.4844,534.3438 C1590.1875,534.3438 1589.9844,534.4375 1589.7656,534.75 L1589.5938,534.6719 Z " fill="#000000"/><text fill="#000000" font-family="sans-serif" font-size="14" lengthAdjust="spacing" textLength="47" x="1607.75" y="543.8467">Server</text><line style="stroke:#181818;stroke-width:0.5;" x1="1440" x2="1790" y1="555" y2="555"/><rect fill="none" height="6" style="stroke:#C82930;stroke-width:1.0;" width="6" x="1447" y="565.6484"/><text fill="#000000" font-family="sans-serif" font-size="14" lengthAdjust="spacing" textLength="119" x="1459" y="571.9951">mStatus : Status</text><rect fill="none" height="6" style="stroke:#C82930;stroke-width:1.0;" width="6" x="1447" y="581.9453"/><text fill="#000000" font-family="sans-serif" font-size="14" lengthAdjust="spacing" textLength="214" x="1459" y="588.292">mMutex : mutable std::mutex</text><rect fill="none" height="6" style="stroke:#C82930;stroke-width:1.0;" width="6" x="1447" y="598.2422"/><text fill="#000000" font-family="sans-serif" font-size="14" lengthAdjust="spacing" textLength="321" x="1459" y="604.5889">mConditionVariable : std::condition_variable</text><rect fill="none" height="6" style="stroke:#C82930;stroke-width:1.0;" width="6" x="1447" y="614.5391"/><text fill="#000000" font-family="sans-serif" font-size="14" lengthAdjust="spacing" textLength="312" x="1459" y="620.8857">mThreadPtr : std::unique_ptr&lt;std::thread&gt;</text><rect fill="none" height="6" style="stroke:#C82930;stroke-width:1.0;" width="6" x="1447" y="630.8359"/><text fill="#000000" font-family="sans-serif" font-size="14" lengthAdjust="spacing" textLength="296" x="1459" y="637.1826">mAgents : std::vector&lt;Agent::WeakPtr&gt;</text><line style="stroke:#181818;stroke-width:0.5;" x1="1440" x2="1790" y1="644.4844" y2="644.4844"/><ellipse cx="1450" cy="658.1328" fill="#84BE84" rx="3" ry="3" style="stroke:#038048;stroke-width:1.0;"/><text fill="#000000" font-family="sans-serif" font-size="14" lengthAdjust="spacing" textLength="57" x="1459" y="661.4795">Server()</text><ellipse cx="1450" cy="674.4297" fill="#84BE84" rx="3" ry="3" style="stroke:#038048;stroke-width:1.0;"/><text fill="#000000" font-family="sans-serif" font-size="14" lengthAdjust="spacing" textLength="68" x="1459" y="677.7764">~Server()</text><ellipse cx="1450" cy="690.7266" fill="#84BE84" rx="3" ry="3" style="stroke:#038048;stroke-width:1.0;"/><text fill="#000000" font-family="sans-serif" font-size="14" lengthAdjust="spacing" textLength="176" x="1459" y="694.0732">getStatus() : int {query}</text><ellipse cx="1450" cy="707.0234" fill="#84BE84" rx="3" ry="3" style="stroke:#038048;stroke-width:1.0;"/><text fill="#000000" font-family="sans-serif" font-size="14" lengthAdjust="spacing" textLength="326" x="1459" y="710.3701">registerAgent(Agent::SharedPtr agent) : void</text><rect fill="#F24D5C" height="6" style="stroke:#C82930;stroke-width:1.0;" width="6" x="1447" y="720.3203"/><text fill="#000000" font-family="sans-serif" font-size="14" lengthAdjust="spacing" textLength="76" x="1459" y="726.667">run() : void</text><ellipse cx="1450" cy="739.6172" fill="#84BE84" rx="3" ry="3" style="stroke:#038048;stroke-width:1.0;"/><text fill="#000000" font-family="sans-serif" font-size="14" lengthAdjust="spacing" textLength="88" x="1459" y="742.9639">start() : void</text><ellipse cx="1450" cy="755.9141" fill="#84BE84" rx="3" ry="3" style="stroke:#038048;stroke-width:1.0;"/><text fill="#000000" font-family="sans-serif" font-size="14" lengthAdjust="spacing" textLength="86" x="1459" y="759.2607">stop() : void</text></g><!--class Agent::Task--><g id="elem_Agent::Task"><rect codeLine="59" fill="#F1F1F1" height="96.8906" id="Agent::Task" rx="2.5" ry="2.5" style="stroke:#181818;stroke-width:0.5;" width="119" x="256.5" y="116.5"/><ellipse cx="271.5" cy="132.5" fill="#EB937F" rx="11" ry="11" style="stroke:#181818;stroke-width:1.0;"/><path d="M270.2969,133.375 L271.75,133.375 L271.75,133.4844 C271.75,133.8906 271.7813,134.0469 271.8594,134.2031 C272.0156,134.4531 272.2969,134.6094 272.5938,134.6094 C272.8438,134.6094 273.1094,134.4688 273.2656,134.25 C273.3906,134.0938 273.4219,133.9375 273.4219,133.4844 L273.4219,131.5625 C273.4219,131.4063 273.4219,131.3594 273.4063,131.2031 C273.3438,130.7344 273.0313,130.4219 272.5781,130.4219 C272.3281,130.4219 272.0625,130.5625 271.8906,130.7813 C271.7813,130.9531 271.75,131.1094 271.75,131.5625 L271.75,131.6875 L270.2969,131.6875 L270.2969,129.2813 L274.2813,129.2813 L274.2813,130.1406 C274.2813,130.5469 274.3125,130.7188 274.3906,130.875 C274.5625,131.125 274.8438,131.2813 275.125,131.2813 C275.3906,131.2813 275.6563,131.1406 275.8281,130.9219 C275.9375,130.75 275.9688,130.6094 275.9688,130.1406 L275.9688,127.5938 L268.3438,127.5938 C267.9063,127.5938 267.7813,127.6094 267.625,127.7031 C267.375,127.8594 267.2188,128.1563 267.2188,128.4375 C267.2188,128.7188 267.3594,128.9688 267.5781,129.1406 C267.7344,129.25 267.9219,129.2813 268.3438,129.2813 L268.5938,129.2813 L268.5938,135.7969 L268.3438,135.7969 C267.9375,135.7969 267.7813,135.8125 267.625,135.9219 C267.375,136.0938 267.2188,136.3594 267.2188,136.6563 C267.2188,136.9219 267.3594,137.1719 267.5781,137.3281 C267.7188,137.4531 267.9531,137.5 268.3438,137.5 L276.3438,137.5 L276.3438,134.9219 C276.3438,134.4844 276.3125,134.3438 276.2344,134.1875 C276.0625,133.9375 275.7813,133.7813 275.5,133.7813 C275.2344,133.7813 274.9688,133.8906 274.7969,134.1406 C274.6875,134.2969 274.6563,134.4375 274.6563,134.9219 L274.6563,135.7969 L270.2969,135.7969 L270.2969,133.375 Z " fill="#000000"/><text fill="#000000" font-family="sans-serif" font-size="14" lengthAdjust="spacing" textLength="87" x="285.5" y="137.3467">Agent::Task</text><line style="stroke:#181818;stroke-width:0.5;" x1="257.5" x2="374.5" y1="148.5" y2="148.5"/><text fill="#000000" font-family="sans-serif" font-size="14" lengthAdjust="spacing" textLength="84" x="262.5" y="165.4951">BlockMe_3s</text><text fill="#000000" font-family="sans-serif" font-size="14" lengthAdjust="spacing" textLength="13" x="262.5" y="181.792">Pi</text><text fill="#000000" font-family="sans-serif" font-size="14" lengthAdjust="spacing" textLength="76" x="262.5" y="198.0889">PingMe_5x</text><line style="stroke:#181818;stroke-width:0.5;" x1="257.5" x2="374.5" y1="205.3906" y2="205.3906"/></g><!--class Callback::Type--><g id="elem_Callback::Type"><rect codeLine="66" fill="#F1F1F1" height="80.5938" id="Callback::Type" rx="2.5" ry="2.5" style="stroke:#181818;stroke-width:0.5;" width="139" x="410.5" y="124.5"/><ellipse cx="425.5" cy="140.5" fill="#EB937F" rx="11" ry="11" style="stroke:#181818;stroke-width:1.0;"/><path d="M424.2969,141.375 L425.75,141.375 L425.75,141.4844 C425.75,141.8906 425.7813,142.0469 425.8594,142.2031 C426.0156,142.4531 426.2969,142.6094 426.5938,142.6094 C426.8438,142.6094 427.1094,142.4688 427.2656,142.25 C427.3906,142.0938 427.4219,141.9375 427.4219,141.4844 L427.4219,139.5625 C427.4219,139.4063 427.4219,139.3594 427.4063,139.2031 C427.3438,138.7344 427.0313,138.4219 426.5781,138.4219 C426.3281,138.4219 426.0625,138.5625 425.8906,138.7813 C425.7813,138.9531 425.75,139.1094 425.75,139.5625 L425.75,139.6875 L424.2969,139.6875 L424.2969,137.2813 L428.2813,137.2813 L428.2813,138.1406 C428.2813,138.5469 428.3125,138.7188 428.3906,138.875 C428.5625,139.125 428.8438,139.2813 429.125,139.2813 C429.3906,139.2813 429.6563,139.1406 429.8281,138.9219 C429.9375,138.75 429.9688,138.6094 429.9688,138.1406 L429.9688,135.5938 L422.3438,135.5938 C421.9063,135.5938 421.7813,135.6094 421.625,135.7031 C421.375,135.8594 421.2188,136.1563 421.2188,136.4375 C421.2188,136.7188 421.3594,136.9688 421.5781,137.1406 C421.7344,137.25 421.9219,137.2813 422.3438,137.2813 L422.5938,137.2813 L422.5938,143.7969 L422.3438,143.7969 C421.9375,143.7969 421.7813,143.8125 421.625,143.9219 C421.375,144.0938 421.2188,144.3594 421.2188,144.6563 C421.2188,144.9219 421.3594,145.1719 421.5781,145.3281 C421.7188,145.4531 421.9531,145.5 422.3438,145.5 L430.3438,145.5 L430.3438,142.9219 C430.3438,142.4844 430.3125,142.3438 430.2344,142.1875 C430.0625,141.9375 429.7813,141.7813 429.5,141.7813 C429.2344,141.7813 428.9688,141.8906 428.7969,142.1406 C428.6875,142.2969 428.6563,142.4375 428.6563,142.9219 L428.6563,143.7969 L424.2969,143.7969 L424.2969,141.375 Z " fill="#000000"/><text fill="#000000" font-family="sans-serif" font-size="14" lengthAdjust="spacing" textLength="107" x="439.5" y="145.3467">Callback::Type</text><line style="stroke:#181818;stroke-width:0.5;" x1="411.5" x2="548.5" y1="156.5" y2="156.5"/><text fill="#000000" font-family="sans-serif" font-size="14" lengthAdjust="spacing" textLength="100" x="416.5" y="173.4951">NOTIFICATION</text><text fill="#000000" font-family="sans-serif" font-size="14" lengthAdjust="spacing" textLength="54" x="416.5" y="189.792">RESULT</text><line style="stroke:#181818;stroke-width:0.5;" x1="411.5" x2="548.5" y1="197.0938" y2="197.0938"/></g><!--class Receipt::Mode--><g id="elem_Receipt::Mode"><rect codeLine="72" fill="#F1F1F1" height="80.5938" id="Receipt::Mode" rx="2.5" ry="2.5" style="stroke:#181818;stroke-width:0.5;" width="138" x="585" y="124.5"/><ellipse cx="600" cy="140.5" fill="#EB937F" rx="11" ry="11" style="stroke:#181818;stroke-width:1.0;"/><path d="M598.7969,141.375 L600.25,141.375 L600.25,141.4844 C600.25,141.8906 600.2813,142.0469 600.3594,142.2031 C600.5156,142.4531 600.7969,142.6094 601.0938,142.6094 C601.3438,142.6094 601.6094,142.4688 601.7656,142.25 C601.8906,142.0938 601.9219,141.9375 601.9219,141.4844 L601.9219,139.5625 C601.9219,139.4063 601.9219,139.3594 601.9063,139.2031 C601.8438,138.7344 601.5313,138.4219 601.0781,138.4219 C600.8281,138.4219 600.5625,138.5625 600.3906,138.7813 C600.2813,138.9531 600.25,139.1094 600.25,139.5625 L600.25,139.6875 L598.7969,139.6875 L598.7969,137.2813 L602.7813,137.2813 L602.7813,138.1406 C602.7813,138.5469 602.8125,138.7188 602.8906,138.875 C603.0625,139.125 603.3438,139.2813 603.625,139.2813 C603.8906,139.2813 604.1563,139.1406 604.3281,138.9219 C604.4375,138.75 604.4688,138.6094 604.4688,138.1406 L604.4688,135.5938 L596.8438,135.5938 C596.4063,135.5938 596.2813,135.6094 596.125,135.7031 C595.875,135.8594 595.7188,136.1563 595.7188,136.4375 C595.7188,136.7188 595.8594,136.9688 596.0781,137.1406 C596.2344,137.25 596.4219,137.2813 596.8438,137.2813 L597.0938,137.2813 L597.0938,143.7969 L596.8438,143.7969 C596.4375,143.7969 596.2813,143.8125 596.125,143.9219 C595.875,144.0938 595.7188,144.3594 595.7188,144.6563 C595.7188,144.9219 595.8594,145.1719 596.0781,145.3281 C596.2188,145.4531 596.4531,145.5 596.8438,145.5 L604.8438,145.5 L604.8438,142.9219 C604.8438,142.4844 604.8125,142.3438 604.7344,142.1875 C604.5625,141.9375 604.2813,141.7813 604,141.7813 C603.7344,141.7813 603.4688,141.8906 603.2969,142.1406 C603.1875,142.2969 603.1563,142.4375 603.1563,142.9219 L603.1563,143.7969 L598.7969,143.7969 L598.7969,141.375 Z " fill="#000000"/><text fill="#000000" font-family="sans-serif" font-size="14" lengthAdjust="spacing" textLength="106" x="614" y="145.3467">Receipt::Mode</text><line style="stroke:#181818;stroke-width:0.5;" x1="586" x2="722" y1="156.5" y2="156.5"/><text fill="#000000" font-family="sans-serif" font-size="14" lengthAdjust="spacing" textLength="42" x="591" y="173.4951">Async</text><text fill="#000000" font-family="sans-serif" font-size="14" lengthAdjust="spacing" textLength="62" x="591" y="189.792">Blocking</text><line style="stroke:#181818;stroke-width:0.5;" x1="586" x2="722" y1="197.0938" y2="197.0938"/></g><!--class Receipt::Status--><g id="elem_Receipt::Status"><rect codeLine="78" fill="#F1F1F1" height="80.5938" id="Receipt::Status" rx="2.5" ry="2.5" style="stroke:#181818;stroke-width:0.5;" width="145" x="243.5" y="342"/><ellipse cx="258.5" cy="358" fill="#EB937F" rx="11" ry="11" style="stroke:#181818;stroke-width:1.0;"/><path d="M257.2969,358.875 L258.75,358.875 L258.75,358.9844 C258.75,359.3906 258.7813,359.5469 258.8594,359.7031 C259.0156,359.9531 259.2969,360.1094 259.5938,360.1094 C259.8438,360.1094 260.1094,359.9688 260.2656,359.75 C260.3906,359.5938 260.4219,359.4375 260.4219,358.9844 L260.4219,357.0625 C260.4219,356.9063 260.4219,356.8594 260.4063,356.7031 C260.3438,356.2344 260.0313,355.9219 259.5781,355.9219 C259.3281,355.9219 259.0625,356.0625 258.8906,356.2813 C258.7813,356.4531 258.75,356.6094 258.75,357.0625 L258.75,357.1875 L257.2969,357.1875 L257.2969,354.7813 L261.2813,354.7813 L261.2813,355.6406 C261.2813,356.0469 261.3125,356.2188 261.3906,356.375 C261.5625,356.625 261.8438,356.7813 262.125,356.7813 C262.3906,356.7813 262.6563,356.6406 262.8281,356.4219 C262.9375,356.25 262.9688,356.1094 262.9688,355.6406 L262.9688,353.0938 L255.3438,353.0938 C254.9063,353.0938 254.7813,353.1094 254.625,353.2031 C254.375,353.3594 254.2188,353.6563 254.2188,353.9375 C254.2188,354.2188 254.3594,354.4688 254.5781,354.6406 C254.7344,354.75 254.9219,354.7813 255.3438,354.7813 L255.5938,354.7813 L255.5938,361.2969 L255.3438,361.2969 C254.9375,361.2969 254.7813,361.3125 254.625,361.4219 C254.375,361.5938 254.2188,361.8594 254.2188,362.1563 C254.2188,362.4219 254.3594,362.6719 254.5781,362.8281 C254.7188,362.9531 254.9531,363 255.3438,363 L263.3438,363 L263.3438,360.4219 C263.3438,359.9844 263.3125,359.8438 263.2344,359.6875 C263.0625,359.4375 262.7813,359.2813 262.5,359.2813 C262.2344,359.2813 261.9688,359.3906 261.7969,359.6406 C261.6875,359.7969 261.6563,359.9375 261.6563,360.4219 L261.6563,361.2969 L257.2969,361.2969 L257.2969,358.875 Z " fill="#000000"/><text fill="#000000" font-family="sans-serif" font-size="14" lengthAdjust="spacing" textLength="113" x="272.5" y="362.8467">Receipt::Status</text><line style="stroke:#181818;stroke-width:0.5;" x1="244.5" x2="387.5" y1="374" y2="374"/><text fill="#000000" font-family="sans-serif" font-size="14" lengthAdjust="spacing" textLength="30" x="249.5" y="390.9951">FAIL</text><text fill="#000000" font-family="sans-serif" font-size="14" lengthAdjust="spacing" textLength="21" x="249.5" y="407.292">OK</text><line style="stroke:#181818;stroke-width:0.5;" x1="244.5" x2="387.5" y1="414.5938" y2="414.5938"/></g><!--class Server::Status--><g id="elem_Server::Status"><rect codeLine="84" fill="#F1F1F1" height="113.1875" id="Server::Status" rx="2.5" ry="2.5" style="stroke:#181818;stroke-width:0.5;" width="135" x="423.5" y="326"/><ellipse cx="438.5" cy="342" fill="#EB937F" rx="11" ry="11" style="stroke:#181818;stroke-width:1.0;"/><path d="M437.2969,342.875 L438.75,342.875 L438.75,342.9844 C438.75,343.3906 438.7813,343.5469 438.8594,343.7031 C439.0156,343.9531 439.2969,344.1094 439.5938,344.1094 C439.8438,344.1094 440.1094,343.9688 440.2656,343.75 C440.3906,343.5938 440.4219,343.4375 440.4219,342.9844 L440.4219,341.0625 C440.4219,340.9063 440.4219,340.8594 440.4063,340.7031 C440.3438,340.2344 440.0313,339.9219 439.5781,339.9219 C439.3281,339.9219 439.0625,340.0625 438.8906,340.2813 C438.7813,340.4531 438.75,340.6094 438.75,341.0625 L438.75,341.1875 L437.2969,341.1875 L437.2969,338.7813 L441.2813,338.7813 L441.2813,339.6406 C441.2813,340.0469 441.3125,340.2188 441.3906,340.375 C441.5625,340.625 441.8438,340.7813 442.125,340.7813 C442.3906,340.7813 442.6563,340.6406 442.8281,340.4219 C442.9375,340.25 442.9688,340.1094 442.9688,339.6406 L442.9688,337.0938 L435.3438,337.0938 C434.9063,337.0938 434.7813,337.1094 434.625,337.2031 C434.375,337.3594 434.2188,337.6563 434.2188,337.9375 C434.2188,338.2188 434.3594,338.4688 434.5781,338.6406 C434.7344,338.75 434.9219,338.7813 435.3438,338.7813 L435.5938,338.7813 L435.5938,345.2969 L435.3438,345.2969 C434.9375,345.2969 434.7813,345.3125 434.625,345.4219 C434.375,345.5938 434.2188,345.8594 434.2188,346.1563 C434.2188,346.4219 434.3594,346.6719 434.5781,346.8281 C434.7188,346.9531 434.9531,347 435.3438,347 L443.3438,347 L443.3438,344.4219 C443.3438,343.9844 443.3125,343.8438 443.2344,343.6875 C443.0625,343.4375 442.7813,343.2813 442.5,343.2813 C442.2344,343.2813 441.9688,343.3906 441.7969,343.6406 C441.6875,343.7969 441.6563,343.9375 441.6563,344.4219 L441.6563,345.2969 L437.2969,345.2969 L437.2969,342.875 Z " fill="#000000"/><text fill="#000000" font-family="sans-serif" font-size="14" lengthAdjust="spacing" textLength="103" x="452.5" y="346.8467">Server::Status</text><line style="stroke:#181818;stroke-width:0.5;" x1="424.5" x2="557.5" y1="358" y2="358"/><text fill="#000000" font-family="sans-serif" font-size="14" lengthAdjust="spacing" textLength="24" x="429.5" y="374.9951">Init</text><text fill="#000000" font-family="sans-serif" font-size="14" lengthAdjust="spacing" textLength="27" x="429.5" y="391.292">Run</text><text fill="#000000" font-family="sans-serif" font-size="14" lengthAdjust="spacing" textLength="37" x="429.5" y="407.5889">Start</text><text fill="#000000" font-family="sans-serif" font-size="14" lengthAdjust="spacing" textLength="35" x="429.5" y="423.8857">Stop</text><line style="stroke:#181818;stroke-width:0.5;" x1="424.5" x2="557.5" y1="431.1875" y2="431.1875"/></g><!--class Callback::Message_t--><g id="elem_Callback::Message_t"><rect codeLine="92" fill="#F1F1F1" height="80.5938" id="Callback::Message_t" rx="2.5" ry="2.5" style="stroke:#181818;stroke-width:0.5;" width="265" x="593.5" y="342"/><ellipse cx="648.75" cy="358" fill="#ADD1B2" rx="11" ry="11" style="stroke:#181818;stroke-width:1.0;"/><path d="M651.0938,353.6719 C650.1563,353.2344 649.5625,353.0938 648.6875,353.0938 C646.0625,353.0938 644.0625,355.1719 644.0625,357.8906 L644.0625,359.0156 C644.0625,361.5938 646.1719,363.4844 649.0625,363.4844 C650.2813,363.4844 651.4375,363.1875 652.1875,362.6406 C652.7656,362.2344 653.0938,361.7813 653.0938,361.3906 C653.0938,360.9375 652.7031,360.5469 652.2344,360.5469 C652.0156,360.5469 651.8125,360.625 651.625,360.8125 C651.1719,361.2969 651.1719,361.2969 650.9844,361.3906 C650.5625,361.6563 649.875,361.7813 649.1094,361.7813 C647.0625,361.7813 645.7656,360.6875 645.7656,358.9844 L645.7656,357.8906 C645.7656,356.1094 647.0156,354.7969 648.75,354.7969 C649.3281,354.7969 649.9375,354.9531 650.4063,355.2031 C650.8906,355.4844 651.0625,355.7031 651.1563,356.1094 C651.2188,356.5156 651.25,356.6406 651.3906,356.7656 C651.5313,356.9063 651.7656,357.0156 651.9844,357.0156 C652.25,357.0156 652.5156,356.875 652.6875,356.6563 C652.7969,356.5 652.8281,356.3125 652.8281,355.8906 L652.8281,354.4688 C652.8281,354.0313 652.8125,353.9063 652.7188,353.75 C652.5625,353.4844 652.2813,353.3438 651.9844,353.3438 C651.6875,353.3438 651.4844,353.4375 651.2656,353.75 L651.0938,353.6719 Z " fill="#000000"/><text fill="#000000" font-family="sans-serif" font-size="14" lengthAdjust="spacing" textLength="146" x="669.25" y="362.8467">Callback::Message_t</text><line style="stroke:#181818;stroke-width:0.5;" x1="594.5" x2="857.5" y1="374" y2="374"/><ellipse cx="604.5" cy="387.6484" fill="none" rx="3" ry="3" style="stroke:#038048;stroke-width:1.0;"/><text fill="#000000" font-family="sans-serif" font-size="14" lengthAdjust="spacing" textLength="239" x="613.5" y="390.9951">mTime : Receipt::ChronotTime_t</text><ellipse cx="604.5" cy="403.9453" fill="none" rx="3" ry="3" style="stroke:#038048;stroke-width:1.0;"/><text fill="#000000" font-family="sans-serif" font-size="14" lengthAdjust="spacing" textLength="147" x="613.5" y="407.292">mResult : std::string</text><line style="stroke:#181818;stroke-width:0.5;" x1="594.5" x2="857.5" y1="414.5938" y2="414.5938"/></g><!--class scoped_logger--><g id="elem_scoped_logger"><rect codeLine="98" fill="#F1F1F1" height="113.1875" id="scoped_logger" rx="2.5" ry="2.5" style="stroke:#181818;stroke-width:0.5;" width="618" x="7" y="588"/><ellipse cx="259.25" cy="604" fill="#ADD1B2" rx="11" ry="11" style="stroke:#181818;stroke-width:1.0;"/><path d="M261.5938,599.6719 C260.6563,599.2344 260.0625,599.0938 259.1875,599.0938 C256.5625,599.0938 254.5625,601.1719 254.5625,603.8906 L254.5625,605.0156 C254.5625,607.5938 256.6719,609.4844 259.5625,609.4844 C260.7813,609.4844 261.9375,609.1875 262.6875,608.6406 C263.2656,608.2344 263.5938,607.7813 263.5938,607.3906 C263.5938,606.9375 263.2031,606.5469 262.7344,606.5469 C262.5156,606.5469 262.3125,606.625 262.125,606.8125 C261.6719,607.2969 261.6719,607.2969 261.4844,607.3906 C261.0625,607.6563 260.375,607.7813 259.6094,607.7813 C257.5625,607.7813 256.2656,606.6875 256.2656,604.9844 L256.2656,603.8906 C256.2656,602.1094 257.5156,600.7969 259.25,600.7969 C259.8281,600.7969 260.4375,600.9531 260.9063,601.2031 C261.3906,601.4844 261.5625,601.7031 261.6563,602.1094 C261.7188,602.5156 261.75,602.6406 261.8906,602.7656 C262.0313,602.9063 262.2656,603.0156 262.4844,603.0156 C262.75,603.0156 263.0156,602.875 263.1875,602.6563 C263.2969,602.5 263.3281,602.3125 263.3281,601.8906 L263.3281,600.4688 C263.3281,600.0313 263.3125,599.9063 263.2188,599.75 C263.0625,599.4844 262.7813,599.3438 262.4844,599.3438 C262.1875,599.3438 261.9844,599.4375 261.7656,599.75 L261.5938,599.6719 Z " fill="#000000"/><text fill="#000000" font-family="sans-serif" font-size="14" lengthAdjust="spacing" textLength="105" x="279.75" y="608.8467">scoped_logger</text><line style="stroke:#181818;stroke-width:0.5;" x1="8" x2="624" y1="620" y2="620"/><rect fill="none" height="6" style="stroke:#C82930;stroke-width:1.0;" width="6" x="15" y="630.6484"/><text fill="#000000" font-family="sans-serif" font-size="14" lengthAdjust="spacing" textLength="160" x="27" y="636.9951">_ss : std::stringstream</text><line style="stroke:#181818;stroke-width:0.5;" x1="8" x2="624" y1="644.2969" y2="644.2969"/><ellipse cx="18" cy="657.9453" fill="#84BE84" rx="3" ry="3" style="stroke:#038048;stroke-width:1.0;"/><text fill="#000000" font-family="sans-serif" font-size="14" lengthAdjust="spacing" textLength="592" x="27" y="661.292">scoped_logger(const std::string&amp; className, const char* funcName, unsigned line)</text><ellipse cx="18" cy="674.2422" fill="#84BE84" rx="3" ry="3" style="stroke:#038048;stroke-width:1.0;"/><text fill="#000000" font-family="sans-serif" font-size="14" lengthAdjust="spacing" textLength="126" x="27" y="677.5889">~scoped_logger()</text><ellipse cx="18" cy="690.5391" fill="#84BE84" rx="3" ry="3" style="stroke:#038048;stroke-width:1.0;"/><text fill="#000000" font-family="sans-serif" font-size="14" lengthAdjust="spacing" textLength="211" x="27" y="693.8857">stream() : std::stringstream&amp;</text></g><!--reverse link Agent to Callback--><g id="link_Agent_Callback"><path codeLine="138" d="M1215.02,468.416 C1192,492.26 1166.76,518.413 1142.96,543.068 " fill="none" id="Agent-backto-Callback" style="stroke:#181818;stroke-width:1.0;"/><polygon fill="#181818" points="1224.06,459.052,1217.0153,460.5923,1215.7277,467.6875,1222.7724,466.1472,1224.06,459.052" style="stroke:#181818;stroke-width:1.0;"/></g><!--reverse link Agent to Server--><g id="link_Agent_Server"><path codeLine="141" d="M1387.74,467.513 C1407.24,483.901 1428.41,501.408 1449.73,518.788 " fill="none" id="Agent-backto-Server" style="stroke:#181818;stroke-width:1.0;"/><polygon fill="#181818" points="1377.71,459.052,1379.7162,465.9784,1386.8815,466.7905,1384.8752,459.8641,1377.71,459.052" style="stroke:#181818;stroke-width:1.0;"/></g><!--reverse link Server to Agent--><g id="link_Server_Agent"><path codeLine="156" d="M1465.72,510.412 C1444.12,492.784 1422.28,475.231 1401.79,459.052 " fill="none" id="Server-backto-Agent" style="stroke:#181818;stroke-width:1.0;"/><polygon fill="#181818" points="1475.96,518.788,1473.8478,511.8932,1466.6709,511.1911,1468.7832,518.0859,1475.96,518.788" style="stroke:#181818;stroke-width:1.0;"/></g><!--reverse link AgentTest to Agent--><g id="link_AgentTest_Agent"><path codeLine="144" d="M1327.65,259.201 C1323.74,274.775 1319.74,290.763 1315.96,305.831 " fill="none" id="AgentTest-backto-Agent" style="stroke:#181818;stroke-width:1.0;"/><polygon fill="#181818" points="1330.89,246.244,1325.5519,251.0922,1327.974,257.8843,1333.3121,253.0362,1330.89,246.244" style="stroke:#181818;stroke-width:1.0;"/><text fill="#000000" font-family="sans-serif" font-size="13" lengthAdjust="spacing" textLength="8" x="1320.7427" y="266.2171">2</text></g><!--reverse link AgentTest to Callback--><g id="link_AgentTest_Callback"><path codeLine="147" d="M1167.53,189.942 C1096.5,209.171 1022.07,243.775 979,306 C930.809,375.627 956.528,471.624 989.082,543.44 " fill="none" id="AgentTest-backto-Callback" style="stroke:#181818;stroke-width:1.0;"/><polygon fill="#181818" points="1180.28,186.642,1173.4692,184.2728,1168.6627,189.6485,1175.4735,192.0177,1180.28,186.642" style="stroke:#181818;stroke-width:1.0;"/></g><!--reverse link AgentTest to Server--><g id="link_AgentTest_Server"><path codeLine="150" d="M1462.25,253.392 C1486.47,269.01 1512.74,283.596 1539,294 C1570.79,306.594 1592.79,280.002 1615,306 C1664.01,363.353 1663.72,448.384 1651.33,518.745 " fill="none" id="AgentTest-backto-Server" style="stroke:#181818;stroke-width:1.0;"/><polygon fill="#181818" points="1451.28,246.155,1454.0928,252.7949,1461.3038,252.7522,1458.491,246.1123,1451.28,246.155" style="stroke:#181818;stroke-width:1.0;"/></g><!--reverse link Callback to Receipt--><g id="link_Callback_Receipt"><path codeLine="153" d="M1366.22,592.914 C1416.01,604.814 1381.34,689.183 1352,745.5 C1331.09,785.644 1298.98,819.984 1263.29,848.714 " fill="none" id="Callback-backto-Receipt" style="stroke:#181818;stroke-width:1.0;"/><polygon fill="#181818" points="1353,591.5,1358.5394,596.1168,1364.9316,592.7791,1359.3922,588.1624,1353,591.5" style="stroke:#181818;stroke-width:1.0;"/></g><!--reverse link ServerTest to Server--><g id="link_ServerTest_Server"><path codeLine="159" d="M1672.9,234.808 C1674.58,257.464 1676.17,282.793 1677,306 C1679.42,373.957 1687.97,391.891 1677,459 C1673.78,478.676 1668.75,499.082 1662.92,518.837 " fill="none" id="ServerTest-backto-Server" style="stroke:#181818;stroke-width:1.0;"/><polygon fill="#181818" points="1671.9,221.814,1668.3694,228.1017,1672.8155,233.779,1676.3461,227.4913,1671.9,221.814" style="stroke:#181818;stroke-width:1.0;"/></g><!--reverse link Agent to Agent--><g id="link_Agent_Agent"><path codeLine="168" d="M1284.41,290.566 C1282.41,242.025 1286.73,198 1297.5,198 C1314.76,198 1315.47,352.501 1300.06,419.414 " fill="none" id="Agent-backto-Agent" style="stroke:#181818;stroke-width:1.0;"/><ellipse cx="1284.8044" cy="297.7439" fill="#FFFFFF" rx="8" ry="8" style="stroke:#181818;stroke-width:1.0;"/><line style="stroke:#181818;stroke-width:1.0;" x1="1284.3688" x2="1285.24" y1="289.7557" y2="305.732"/><line style="stroke:#181818;stroke-width:1.0;" x1="1292.7926" x2="1276.8163" y1="297.3083" y2="298.1794"/></g><!--reverse link Callback to Callback--><g id="link_Callback_Callback"><path codeLine="171" d="M1058.64,528.307 C1060.65,467.502 1056.44,412.5 1046,412.5 C1029.12,412.5 1028.52,507.144 1044.22,583.259 " fill="none" id="Callback-backto-Callback" style="stroke:#181818;stroke-width:1.0;"/><ellipse cx="1058.3399" cy="535.4458" fill="#FFFFFF" rx="8" ry="8" style="stroke:#181818;stroke-width:1.0;"/><line style="stroke:#181818;stroke-width:1.0;" x1="1058.6699" x2="1058.01" y1="527.4526" y2="543.439"/><line style="stroke:#181818;stroke-width:1.0;" x1="1066.3331" x2="1050.3467" y1="535.7757" y2="535.1159"/></g><!--reverse link Callback to Callback--><g id="link_Callback_Callback"><path codeLine="174" d="M1058.64,528.307 C1060.65,467.502 1056.44,412.5 1046,412.5 C1029.08,412.5 1028.52,636.516 1044.31,721.275 " fill="none" id="Callback-backto-Callback-1" style="stroke:#181818;stroke-width:1.0;"/><ellipse cx="1058.3399" cy="535.4458" fill="#FFFFFF" rx="8" ry="8" style="stroke:#181818;stroke-width:1.0;"/><line style="stroke:#181818;stroke-width:1.0;" x1="1058.6699" x2="1058.01" y1="527.4526" y2="543.439"/><line style="stroke:#181818;stroke-width:1.0;" x1="1066.3331" x2="1050.3467" y1="535.7757" y2="535.1159"/></g><!--reverse link Receipt to Receipt--><g id="link_Receipt_Receipt"><path codeLine="177" d="M1058.7,814.411 C1060.55,738.787 1056.32,671 1046,671 C1028.98,671 1028.51,775.067 1044.6,870.476 " fill="none" id="Receipt-backto-Receipt" style="stroke:#181818;stroke-width:1.0;"/><ellipse cx="1058.4871" cy="821.6265" fill="#FFFFFF" rx="8" ry="8" style="stroke:#181818;stroke-width:1.0;"/><line style="stroke:#181818;stroke-width:1.0;" x1="1058.7241" x2="1058.25" y1="813.63" y2="829.623"/><line style="stroke:#181818;stroke-width:1.0;" x1="1066.4836" x2="1050.4906" y1="821.8636" y2="821.3894"/></g><!--reverse link Receipt to Receipt--><g id="link_Receipt_Receipt"><path codeLine="180" d="M1058.7,814.411 C1060.55,738.787 1056.32,671 1046,671 C1028.98,671 1028.51,790.204 1044.6,886.441 " fill="none" id="Receipt-backto-Receipt-1" style="stroke:#181818;stroke-width:1.0;"/><ellipse cx="1058.4871" cy="821.6265" fill="#FFFFFF" rx="8" ry="8" style="stroke:#181818;stroke-width:1.0;"/><line style="stroke:#181818;stroke-width:1.0;" x1="1058.7241" x2="1058.25" y1="813.63" y2="829.623"/><line style="stroke:#181818;stroke-width:1.0;" x1="1066.4836" x2="1050.4906" y1="821.8636" y2="821.3894"/></g><!--reverse link Server to Server--><g id="link_Server_Server"><path codeLine="183" d="M1627.94,503.707 C1629.11,441.554 1624.79,388 1615,388 C1598.05,388 1597.52,476.217 1613.41,559.463 " fill="none" id="Server-backto-Server" style="stroke:#181818;stroke-width:1.0;"/><ellipse cx="1627.7551" cy="510.8006" fill="#FFFFFF" rx="8" ry="8" style="stroke:#181818;stroke-width:1.0;"/><line style="stroke:#181818;stroke-width:1.0;" x1="1627.9602" x2="1627.55" y1="502.8033" y2="518.798"/><line style="stroke:#181818;stroke-width:1.0;" x1="1635.7525" x2="1619.7577" y1="511.0057" y2="510.5955"/></g><!--SRC=[nLPjRziu3FuS_mfX1xJEahJ0XljY10DolHO8jgP3asqV3LNM75rjoIV9NOEY- -r7KV9Rv_PGu80RkbWc7rBaGuhowJ6vklcBCsl8yMaKiO8QGrOvbvOyH9C5hcAcfB5ao_KTrqV4u7DEpcXHt51scoJRFTKy-smrOK4sZIQpdzuObekomP9ap0p0cTfHSnjVSyP5PPFaKcMSbF0p9qv1BFpCYR5PaXYhXSoFYEQcBkmKN0Ohyl1tpVNX4Tmz64kjO8-4QKujZryLEtZiXROelJ581pn4Zr73LviTK3PhNcBaOF2cAgwfLNgvZ34J1QbmMXuHjvW7zoEX7H5suw828v8af35piLroOsZEZTScIKchvKT-IEsS15LgFo2mjlo-HRaN22Zdza9eqrGuyEYenGLmVwWuiV0pRKnLPOMIj5ZstSz-KF4VUM85fpfse3ibCX18PSNtG-owO9rX7wopdhk6ja5hbDvZwwKhLTigu3ciuxRNffwISvdjHCanYBEzLX21UqyXdQx30BUrLDj_HGBrpdz2t0FR2LgpTWNp2-_BfuUEGgQ3hSxlEQiTNSu9eeIqlqG3tdxLBSgG3oYi2wvIe5yYNmnZ1juEnl8oPOLYjnz2Z3wrrnY5m1DI0_RzkzH2O6P8PwYfQSCDP1XyZDGhd3rNBh_qnwfRFyFdysmq1m7E0Bqf-E10mA1ICXEEwAzK2zI7RcMD8hqB6anv3oSHfqU0rLB0LcbbjIVB8W3fmN7O7jGxcBam2L2O9DyulGKlxW1edWiWLllf6VJTbA9Eq56vqBKSCEiADnIeAXuGosLTak0NPokG-uShuYLFtmDzduNxBtDu_Vs-i-Zc4fuzCDfSxTONwxFLRdsrYIRNvzildtOTVZZA0Ruo1yd2Lk1-11ag2TYBrVfJDBdws85ynVkOjHJGOTUrZ2ROhkwXgf6n324q4mORgGoDtUuxEBeES8rNIrCgFrLwZWs3IPwbXShpq9i3IJmoaT1mGyjsNZ6ew5lolPRCIsjfH2vvHWeXSH3z7FfqhPuQCup9NmHOPRU8fsDgVrD9sCLKb75oLcO-wawquyO2tWadlKy09qRPvBVsGZLOHl-5a10l9K-xz8d9HZMbU9rTxwiX68n-F0nisiiwMFXt16sv_T8x2mCxrBbyjxMm_1dG3gwcFzKFEOe3aXlo_9wZxFsFuS6VQmJuTtfCrdBFjR1KGlKrBwYRR6OlAlyPw36hF8TXXAeHp8clvTl5WfmqPOc6uf1S567BdOGkE-bwwysxDnw9eXU0JtTv4TTkUp8s0H0IZhx3X8gy44Qld4F_WQSDQE3WgjvtT61XrZhrexOVarUEHFWIo8rUfsy-OsQzPFoaVLuRhiSkvLcNJAFz1m00]--></g></svg>